<svg width="24" height="24" viewBox="0 0 24 24" fill="none" xmlns="http://www.w3.org/2000/svg">
<path d="M12 0C18.6274 0 24 5.37258 24 12C24 18.6274 18.6274 24 12 24C5.37258 24 0 18.6274 0 12C0 5.37258 5.37258 0 12 0ZM15.4941 9.87891C14.6371 9.87894 13.9414 10.1475 13.4033 10.6797C12.8667 11.2135 12.5977 11.9804 12.5977 12.9805C12.5977 14.0466 12.8944 14.8171 13.4912 15.29C14.085 15.7637 14.7719 16 15.5508 16C16.4935 16 17.2272 15.7195 17.751 15.1592C18.0866 14.8058 18.277 14.4568 18.3184 14.1152H16.7568C16.6666 14.2844 16.5609 14.4169 16.4414 14.5127C16.2239 14.6887 15.9397 14.7773 15.5928 14.7773C15.2632 14.7773 14.9823 14.7043 14.749 14.5596C14.3638 14.3272 14.1623 13.921 14.1367 13.3428H18.3984C18.4052 12.8447 18.389 12.4616 18.3477 12.1973C18.2769 11.7451 18.1215 11.3469 17.8799 11.0039C17.615 10.615 17.2787 10.3301 16.8701 10.1504C16.4622 9.96997 16.0036 9.87891 15.4941 9.87891ZM5.59961 15.8037H9.16406C9.56594 15.8037 9.93829 15.7688 10.2822 15.6982C10.6259 15.627 10.9229 15.4973 11.1748 15.3066C11.3991 15.1403 11.5863 14.9352 11.7354 14.6924C11.9708 14.3257 12.0879 13.9107 12.0879 13.4482C12.0879 12.9998 11.985 12.618 11.7803 12.3047C11.5734 11.9908 11.2694 11.7617 10.8662 11.6162C11.1318 11.4826 11.3328 11.3337 11.4697 11.1719C11.7143 10.8823 11.835 10.4983 11.835 10.0225C11.835 9.5601 11.714 9.16383 11.4727 8.83203C11.0701 8.2916 10.3874 8.01419 9.42285 8H5.59961V15.8037ZM13.7793 9.33496H17.1689V8.36426H13.7793V9.33496Z" fill="#525965"/>
<path d="M9.12402 12.3682C9.46259 12.3711 9.7269 12.4164 9.91504 12.501C10.2514 12.6532 10.4189 12.9311 10.4189 13.3379C10.4189 13.8175 10.2454 14.1417 9.89844 14.3125C9.70812 14.4036 9.4404 14.4492 9.09766 14.4492H7.17676V12.3682H9.12402ZM15.4951 11.125C15.8564 11.125 16.158 11.2284 16.4033 11.4355C16.6456 11.6442 16.7827 11.9468 16.8105 12.3477H14.1748C14.2305 11.972 14.366 11.6739 14.582 11.4541C14.798 11.2344 15.1038 11.125 15.4951 11.125ZM8.89844 9.35547C9.27696 9.35547 9.58865 9.39662 9.83398 9.47754C10.117 9.59485 10.2588 9.83467 10.2588 10.1992C10.2587 10.5257 10.1511 10.7546 9.9375 10.8838C9.7223 11.013 9.44292 11.0771 9.10059 11.0771H7.17676V9.35547H8.89844Z" fill="#525965"/>
</svg>
