<svg width="24" height="24" viewBox="0 0 24 24" fill="none" xmlns="http://www.w3.org/2000/svg">
<path d="M0 12C0 5.37258 5.37258 0 12 0C18.6274 0 24 5.37258 24 12C24 18.6274 18.6274 24 12 24C5.37258 24 0 18.6274 0 12Z" fill="white"/>
<path d="M11.9994 7.09333C13.5017 7.09333 14.515 7.74222 15.0928 8.28444L17.3506 6.08C15.9639 4.79111 14.1594 4 11.9994 4C8.87056 4 6.16834 5.79556 4.85278 8.40889L7.43945 10.4178C8.08834 8.48889 9.88389 7.09333 11.9994 7.09333V7.09333Z" fill="#EA4335"/>
<path d="M19.68 12.1824C19.68 11.5247 19.6267 11.0447 19.5111 10.5469H12V13.5158H16.4089C16.32 14.2535 15.84 15.3647 14.7733 16.1113L17.2978 18.0669C18.8089 16.6713 19.68 14.618 19.68 12.1824V12.1824Z" fill="#4285F4"/>
<path d="M7.44889 13.5835C7.28 13.0857 7.18222 12.5524 7.18222 12.0013C7.18222 11.4502 7.28 10.9168 7.44 10.419L4.85333 8.41016C4.31111 9.4946 4 10.7124 4 12.0013C4 13.2902 4.31111 14.5079 4.85333 15.5924L7.44889 13.5835V13.5835Z" fill="#FBBC05"/>
<path d="M11.9998 19.9959C14.1598 19.9959 15.9732 19.2848 17.2976 18.0581L14.7732 16.1026C14.0976 16.5737 13.1909 16.9026 11.9998 16.9026C9.88428 16.9026 8.08873 15.507 7.44873 13.5781L4.86206 15.587C6.17762 18.2003 8.87095 19.9959 11.9998 19.9959V19.9959Z" fill="#34A853"/>
</svg>
