<svg width="32" height="32" viewBox="0 0 32 32" fill="none" xmlns="http://www.w3.org/2000/svg">
<path d="M16 0C24.8366 0 32 7.16344 32 16C32 24.8366 24.8366 32 16 32C7.16344 32 0 24.8366 0 16C2.57703e-07 7.16344 7.16344 2.5772e-07 16 0ZM19.6621 9.70605C19.0913 9.54787 18.2179 9.5702 17.7031 9.75098C16.3042 10.2594 15.4198 11.57 15.5205 13.0049L15.5547 13.5586L14.9951 13.4912C12.9582 13.2313 11.1788 12.3493 9.66797 10.8691L8.92871 10.1348L8.73828 10.6777C8.33557 11.8865 8.59345 13.1629 9.43262 14.0215C9.88028 14.496 9.77906 14.5647 9.00684 14.2822C8.73902 14.1921 8.50485 14.1239 8.48145 14.1572C8.4031 14.2363 8.67115 15.2651 8.88379 15.6719C9.17478 16.2367 9.76799 16.7905 10.417 17.1182L10.9658 17.3779L10.3164 17.3887C9.68994 17.3887 9.66723 17.4005 9.73438 17.6377C9.95823 18.372 10.8425 19.1512 11.8271 19.4902L12.5215 19.7275L11.917 20.0889C11.0217 20.6086 9.9699 20.9031 8.91797 20.9258C8.41508 20.9371 8.00121 20.9817 8 21.0156C8 21.1286 9.36555 21.7612 10.1602 22.0098C12.544 22.7442 15.3756 22.428 17.502 21.1738C19.0128 20.2812 20.5235 18.5074 21.2285 16.79C21.609 15.8748 21.9893 14.2026 21.9893 13.4004C21.9893 12.8808 22.0229 12.8126 22.6494 12.1914C23.0187 11.8298 23.3664 11.4343 23.4336 11.3213C23.5454 11.1069 23.5334 11.1068 22.9629 11.2988C22.0119 11.6377 21.8777 11.5924 22.3477 11.084C22.6946 10.7224 23.1084 10.0671 23.1084 9.875C23.1075 9.84168 22.9407 9.89861 22.751 10C22.5495 10.113 22.1014 10.2821 21.7656 10.3838L21.1611 10.5762L20.6133 10.2031C20.3113 9.99988 19.8861 9.77401 19.6621 9.70605Z" fill="white"/>
</svg>
