<svg width="452" height="365" viewBox="0 0 452 365" fill="none" xmlns="http://www.w3.org/2000/svg">
<path fill-rule="evenodd" clip-rule="evenodd" d="M234.425 10.6972C277.504 15.3832 317.465 26.8711 352.172 52.823C394.351 84.3628 439.385 118.672 448.262 170.593C458.366 229.688 449.726 302.388 400.749 336.95C353.453 370.326 292.236 318.613 234.425 321.494C169.813 324.715 104.813 389.791 50.6564 354.398C-4.37899 318.432 -3.8585 235.933 3.51689 170.593C10.0896 112.365 39.7729 57.4361 87.942 24.0807C129.85 -4.93882 183.753 5.18515 234.425 10.6972Z" fill="#F25B38"/>
<g clip-path="url(#clip0_6911_22238)">
<path d="M397.28 119.262C397.156 119.262 397.034 119.224 396.932 119.153L228.372 1.7627C227.859 1.40712 227.249 1.2171 226.625 1.21816C226.001 1.21923 225.392 1.41133 224.88 1.76865L57.5336 119.152C57.4013 119.245 57.2375 119.281 57.0782 119.253C56.919 119.225 56.7773 119.135 56.6845 119.003C56.5917 118.87 56.5552 118.706 56.5832 118.547C56.6111 118.388 56.7012 118.246 56.8335 118.154L224.18 0.770491C224.897 0.270312 225.749 0.00144183 226.623 5.7826e-06C227.497 -0.00143026 228.35 0.264635 229.068 0.762456L397.629 118.152C397.735 118.227 397.815 118.333 397.857 118.456C397.899 118.578 397.901 118.711 397.862 118.835C397.823 118.959 397.746 119.067 397.641 119.144C397.536 119.221 397.41 119.262 397.28 119.262Z" fill="#3F3D56"/>
<path d="M67.0964 123.423L226.791 5.07031L387.697 131.845L235.019 222.354L152.128 203.46L67.0964 123.423Z" fill="#E6E6E6"/>
<path d="M159.125 278.258H80.2318C79.7474 278.259 79.2676 278.164 78.8199 277.979C78.3721 277.794 77.9653 277.523 77.6225 277.18C77.2797 276.838 77.0078 276.432 76.8223 275.984C76.6368 275.537 76.5413 275.057 76.5413 274.573C76.5413 274.088 76.6368 273.608 76.8223 273.161C77.0078 272.713 77.2797 272.307 77.6225 271.965C77.9653 271.622 78.3721 271.351 78.8199 271.166C79.2676 270.981 79.7474 270.886 80.2318 270.887H159.125C159.609 270.886 160.089 270.981 160.537 271.166C160.984 271.351 161.391 271.622 161.734 271.965C162.077 272.307 162.349 272.713 162.534 273.161C162.72 273.608 162.815 274.088 162.815 274.573C162.815 275.057 162.72 275.537 162.534 275.984C162.349 276.432 162.077 276.838 161.734 277.18C161.391 277.523 160.984 277.794 160.537 277.979C160.089 278.164 159.609 278.259 159.125 278.258Z" fill="#8AC5C7"/>
<path d="M108.537 262.411H80.2318C79.7474 262.411 79.2676 262.316 78.8199 262.132C78.3721 261.947 77.9653 261.675 77.6225 261.333C77.2797 260.99 77.0078 260.584 76.8223 260.136C76.6368 259.689 76.5413 259.209 76.5413 258.725C76.5413 258.24 76.6368 257.761 76.8223 257.313C77.0078 256.866 77.2797 256.459 77.6225 256.117C77.9653 255.775 78.3721 255.503 78.8199 255.318C79.2676 255.133 79.7474 255.038 80.2318 255.039H108.537C109.021 255.038 109.501 255.133 109.949 255.318C110.397 255.503 110.803 255.775 111.146 256.117C111.489 256.459 111.761 256.866 111.946 257.313C112.132 257.761 112.227 258.24 112.227 258.725C112.227 259.209 112.132 259.689 111.946 260.136C111.761 260.584 111.489 260.99 111.146 261.333C110.803 261.675 110.397 261.947 109.949 262.132C109.501 262.316 109.021 262.411 108.537 262.411Z" fill="#8AC5C7"/>
<path d="M229.036 189.344C228.437 189.345 227.843 189.229 227.288 189.002L128.799 148.136V20.2196C128.801 19.0884 129.251 18.004 130.05 17.2042C130.85 16.4044 131.935 15.9544 133.066 15.9531H322.009C323.14 15.9544 324.224 16.4044 325.024 17.2042C325.824 18.004 326.274 19.0884 326.275 20.2196V148.225L326.09 148.304L230.838 188.982C230.268 189.221 229.655 189.345 229.036 189.344Z" fill="white"/>
<path d="M229.036 189.649C228.397 189.649 227.763 189.526 227.171 189.284L128.494 148.34V20.2196C128.496 19.0077 128.978 17.8458 129.835 16.9888C130.692 16.1319 131.854 15.6498 133.066 15.6484H322.008C323.22 15.6498 324.382 16.1319 325.239 16.9888C326.096 17.8458 326.578 19.0077 326.58 20.2196V148.427L230.958 189.262C230.349 189.518 229.696 189.649 229.036 189.649ZM129.713 147.525L227.636 188.157C228.55 188.527 229.573 188.521 230.481 188.14L325.361 147.622V20.2196C325.36 19.3309 325.006 18.4789 324.378 17.8504C323.749 17.222 322.897 16.8685 322.008 16.8674H133.066C132.177 16.8685 131.325 17.222 130.696 17.8504C130.068 18.4789 129.714 19.3309 129.713 20.2196L129.713 147.525Z" fill="#3F3D56"/>
<path d="M396.062 118.043H395.94L325.97 147.92L230.237 188.799C229.863 188.956 229.462 189.038 229.056 189.04C228.65 189.042 228.248 188.965 227.872 188.811L129.104 147.835L57.4152 118.092L57.3057 118.043H57.1837C56.0525 118.044 54.9681 118.494 54.1682 119.294C53.3684 120.094 52.9185 121.178 52.9172 122.309V307.595C52.9185 308.726 53.3684 309.81 54.1682 310.61C54.9681 311.41 56.0525 311.86 57.1837 311.861H396.062C397.193 311.86 398.277 311.41 399.077 310.61C399.877 309.81 400.327 308.726 400.328 307.595V122.309C400.327 121.178 399.877 120.094 399.077 119.294C398.277 118.494 397.193 118.044 396.062 118.043ZM399.109 307.595C399.109 308.403 398.788 309.178 398.216 309.749C397.645 310.321 396.87 310.642 396.062 310.642H57.1837C56.3755 310.642 55.6006 310.321 55.0292 309.749C54.4577 309.178 54.1365 308.403 54.1362 307.595V122.309C54.1373 121.521 54.443 120.764 54.9894 120.196C55.5357 119.628 56.2805 119.294 57.0679 119.262L129.104 149.151L227.403 189.939C228.467 190.372 229.659 190.365 230.719 189.92L325.97 149.243L396.184 119.262C396.97 119.296 397.713 119.632 398.257 120.199C398.802 120.767 399.107 121.523 399.109 122.309V307.595Z" fill="#3F3D56"/>
<path d="M228.052 153.074C224.416 153.08 220.877 151.905 217.967 149.724L217.787 149.588L179.809 120.511C178.05 119.163 176.574 117.482 175.465 115.564C174.355 113.646 173.635 111.528 173.344 109.332C173.053 107.135 173.198 104.903 173.77 102.762C174.342 100.621 175.33 98.6144 176.678 96.8556C178.025 95.0968 179.706 93.6206 181.624 92.5114C183.542 91.4021 185.66 90.6815 187.857 90.3908C190.053 90.1 192.286 90.2447 194.427 90.8167C196.567 91.3887 198.574 92.3767 200.333 93.7243L224.932 112.587L283.065 36.774C284.413 35.0156 286.094 33.54 288.013 32.4315C289.931 31.3229 292.049 30.6031 294.246 30.3131C296.443 30.0231 298.675 30.1687 300.816 30.7414C302.956 31.3142 304.963 32.303 306.721 33.6513L306.36 34.142L306.73 33.6584C310.277 36.3844 312.598 40.406 313.183 44.841C313.769 49.2759 312.571 53.7619 309.853 57.3149L241.476 146.489C239.894 148.544 237.861 150.207 235.533 151.349C233.205 152.49 230.645 153.081 228.052 153.074Z" fill="#8AC5C7"/>
</g>
<defs>
<clipPath id="clip0_6911_22238">
<rect width="347.411" height="311.863" fill="white" transform="translate(52.9172)"/>
</clipPath>
</defs>
</svg>
