<svg width="382" height="400" viewBox="0 0 382 400" fill="none" xmlns="http://www.w3.org/2000/svg">
<g clip-path="url(#clip0_6964_26611)">
<path d="M147.771 400C229.382 400 295.541 388.304 295.541 373.876C295.541 359.449 229.382 347.753 147.771 347.753C66.1591 347.753 0 359.449 0 373.876C0 388.304 66.1591 400 147.771 400Z" fill="#3F3D56"/>
<path d="M237.583 289.035C317.342 289.035 382 224.333 382 144.518C382 64.7028 317.342 0 237.583 0C157.823 0 93.165 64.7028 93.165 144.518C93.165 224.333 157.823 289.035 237.583 289.035Z" fill="#3F3D56"/>
<path opacity="0.05" d="M237.583 263.822C303.427 263.822 356.804 210.408 356.804 144.518C356.804 78.6281 303.427 25.2139 237.583 25.2139C171.739 25.2139 118.361 78.6281 118.361 144.518C118.361 210.408 171.739 263.822 237.583 263.822Z" fill="#E7F3F3"/>
<path opacity="0.05" d="M237.582 242.297C291.547 242.297 335.295 198.52 335.295 144.517C335.295 90.5149 291.547 46.7373 237.582 46.7373C183.617 46.7373 139.87 90.5149 139.87 144.517C139.87 198.52 183.617 242.297 237.582 242.297Z" fill="#E7F3F3"/>
<path opacity="0.05" d="M237.582 214.624C276.274 214.624 307.64 183.236 307.64 144.518C307.64 105.799 276.274 74.4111 237.582 74.4111C198.89 74.4111 167.524 105.799 167.524 144.518C167.524 183.236 198.89 214.624 237.582 214.624Z" fill="#E7F3F3"/>
<path d="M94.4444 157.451C94.4444 157.451 83.0903 189.433 88.1366 200.795C93.1829 212.157 101.173 223.098 101.173 223.098C101.173 223.098 98.2291 159.555 94.4444 157.451Z" fill="#D0CDE1"/>
<path opacity="0.1" d="M94.4444 157.451C94.4444 157.451 83.0903 189.433 88.1366 200.795C93.1829 212.157 101.173 223.098 101.173 223.098C101.173 223.098 98.2291 159.555 94.4444 157.451Z" fill="#E7F3F3"/>
<path d="M102.434 231.514C102.434 231.514 101.593 239.51 101.172 239.931C100.752 240.352 101.593 241.193 101.172 242.456C100.752 243.718 100.331 245.401 101.172 245.822C102.013 246.243 96.5465 283.275 96.5465 283.275C96.5465 283.275 83.0897 300.949 88.5565 328.723L90.2386 356.917C90.2386 356.917 103.275 357.759 103.275 353.13C103.275 353.13 102.434 347.659 102.434 345.134C102.434 342.609 104.536 342.609 103.275 341.347C102.013 340.085 102.013 339.243 102.013 339.243C102.013 339.243 104.116 337.56 103.695 337.139C103.275 336.718 107.48 306.84 107.48 306.84C107.48 306.84 112.106 302.211 112.106 299.686V297.161C112.106 297.161 114.208 291.691 114.208 291.27C114.208 290.849 125.563 265.18 125.563 265.18L130.188 283.695L135.235 310.207C135.235 310.207 137.758 334.193 142.804 343.451C142.804 343.451 151.635 373.75 151.635 372.908C151.635 372.066 166.353 369.962 165.933 366.175C165.512 362.388 157.102 309.365 157.102 309.365L159.204 230.673L102.434 231.514Z" fill="#2F2E41"/>
<path d="M91.0801 354.812C91.0801 354.812 79.7259 377.116 87.2953 377.957C94.8648 378.799 97.8084 378.799 101.173 375.432C103.012 373.592 106.736 371.123 109.735 369.262C111.512 368.177 112.947 366.614 113.876 364.75C114.806 362.886 115.191 360.798 114.989 358.726C114.767 356.667 113.999 354.97 112.106 354.812C107.06 354.392 101.173 349.763 101.173 349.763L91.0801 354.812Z" fill="#2F2E41"/>
<path d="M153.737 371.225C153.737 371.225 142.383 393.528 149.953 394.369C157.522 395.211 160.466 395.211 163.83 391.845C165.669 390.004 169.394 387.535 172.392 385.674C174.169 384.59 175.604 383.026 176.534 381.162C177.463 379.299 177.849 377.211 177.646 375.138C177.425 373.079 176.656 371.382 174.763 371.225C169.717 370.804 163.83 366.175 163.83 366.175L153.737 371.225Z" fill="#2F2E41"/>
<path d="M141.738 120.952C151.501 120.952 159.415 113.032 159.415 103.263C159.415 93.4931 151.501 85.5732 141.738 85.5732C131.975 85.5732 124.061 93.4931 124.061 103.263C124.061 113.032 131.975 120.952 141.738 120.952Z" fill="#FFB8B8"/>
<path d="M130.373 109.075C130.373 109.075 117.747 132.324 116.736 132.324C115.726 132.324 139.464 139.905 139.464 139.905C139.464 139.905 146.03 117.667 147.04 115.646L130.373 109.075Z" fill="#FFB8B8"/>
<path d="M149.742 134.516C149.742 134.516 124.511 120.63 121.988 121.05C119.465 121.471 92.5511 145.037 92.9717 154.716C93.3922 164.394 96.7564 180.385 96.7564 180.385C96.7564 180.385 98.0179 224.992 100.541 225.412C103.064 225.833 100.121 233.408 100.962 233.408C101.803 233.408 159.835 233.408 160.255 232.145C160.676 230.883 149.742 134.516 149.742 134.516Z" fill="#D0CDE1"/>
<path d="M163.83 234.46C163.83 234.46 171.82 258.867 165.092 258.026C158.364 257.184 155.42 236.985 155.42 236.985L163.83 234.46Z" fill="#FFB8B8"/>
<path d="M142.383 133.044C142.383 133.044 126.824 136.411 129.347 157.451C131.87 178.492 136.496 199.533 136.496 199.533L152.055 233.619L153.737 239.931L165.092 236.985L156.681 188.171C156.681 188.171 153.737 135.99 149.953 134.306C147.566 133.288 144.971 132.855 142.383 133.044Z" fill="#D0CDE1"/>
<path opacity="0.1" d="M132.922 198.901L152.266 233.407L135.968 197.047L132.922 198.901Z" fill="#E7F3F3"/>
<path d="M159.336 98.0541L159.394 96.7023L162.082 97.3716C162.053 96.9376 161.93 96.5151 161.722 96.1332C161.514 95.7512 161.226 95.419 160.877 95.1594L163.74 94.9993C161.338 91.5837 158.269 88.6907 154.719 86.4951C151.169 84.2994 147.21 82.8467 143.083 82.2245C136.892 81.3265 129.998 82.626 125.752 87.2241C123.693 89.4544 122.399 92.2907 121.479 95.1843C119.783 100.514 119.438 106.866 122.973 111.198C126.566 115.601 132.841 116.463 138.495 117.008C140.485 117.2 142.569 117.378 144.413 116.606C144.618 114.49 144.347 112.355 143.621 110.357C143.318 109.739 143.174 109.055 143.2 108.367C143.451 106.683 145.695 106.259 147.38 106.487C149.066 106.714 151.092 107.062 152.2 105.771C152.963 104.881 152.918 103.585 153.019 102.417C153.294 99.2376 159.307 98.7207 159.336 98.0541Z" fill="#2F2E41"/>
<path d="M267.759 377.471C279.134 377.471 288.356 368.243 288.356 356.86C288.356 345.477 279.134 336.249 267.759 336.249C256.384 336.249 247.162 345.477 247.162 356.86C247.162 368.243 256.384 377.471 267.759 377.471Z" fill="#F25B38"/>
<path d="M25.8654 370.282C37.2408 370.282 46.4623 361.054 46.4623 349.671C46.4623 338.287 37.2408 329.06 25.8654 329.06C14.4901 329.06 5.26855 338.287 5.26855 349.671C5.26855 361.054 14.4901 370.282 25.8654 370.282Z" fill="#F25B38"/>
<path d="M25.8655 337.208C34.0663 337.208 40.7144 330.555 40.7144 322.348C40.7144 314.142 34.0663 307.489 25.8655 307.489C17.6647 307.489 11.0166 314.142 11.0166 322.348C11.0166 330.555 17.6647 337.208 25.8655 337.208Z" fill="#F25B38"/>
<path d="M25.8661 309.886C31.686 309.886 36.404 305.165 36.404 299.341C36.404 293.517 31.686 288.796 25.8661 288.796C20.0461 288.796 15.3281 293.517 15.3281 299.341C15.3281 305.165 20.0461 309.886 25.8661 309.886Z" fill="#F25B38"/>
</g>
<defs>
<clipPath id="clip0_6964_26611">
<rect width="382" height="400" fill="white"/>
</clipPath>
</defs>
</svg>
