<svg width="452" height="318" viewBox="0 0 452 318" fill="none" xmlns="http://www.w3.org/2000/svg">
<path d="M137.112 309.955C136.784 312.544 137.141 315.175 138.147 317.582C139.886 315.625 141.022 313.206 141.419 310.617C141.815 308.027 141.456 305.379 140.383 302.989C138.702 304.985 137.574 307.387 137.112 309.955Z" fill="#F1F1F1"/>
<path d="M338.282 276.009L141.922 275.678C139.128 275.671 136.452 274.554 134.48 272.573C132.508 270.592 131.401 267.909 131.403 265.112L131.58 159.446C131.588 156.649 132.703 153.97 134.682 151.996C136.661 150.021 139.341 148.913 142.134 148.915L338.495 149.245C341.288 149.253 343.965 150.37 345.937 152.351C347.909 154.332 349.015 157.015 349.014 159.812L348.837 265.477C348.829 268.274 347.713 270.954 345.734 272.928C343.756 274.902 341.076 276.01 338.282 276.009Z" fill="white"/>
<path d="M142.122 156.039C141.215 156.038 140.344 156.398 139.701 157.039C139.058 157.681 138.696 158.551 138.693 159.46L138.516 265.125C138.516 266.034 138.875 266.906 139.516 267.549C140.156 268.193 141.026 268.555 141.933 268.558L338.294 268.888C339.201 268.889 340.072 268.529 340.715 267.887C341.358 267.246 341.72 266.375 341.723 265.467L341.9 159.801C341.9 158.893 341.541 158.021 340.9 157.378C340.26 156.734 339.39 156.371 338.483 156.369L142.122 156.039Z" fill="#E4E4E4"/>
<path d="M338.282 276.009L141.922 275.678C139.128 275.671 136.452 274.554 134.48 272.573C132.508 270.592 131.401 267.909 131.403 265.112L131.58 159.446C131.588 156.649 132.703 153.97 134.682 151.996C136.661 150.021 139.341 148.913 142.134 148.915L338.495 149.245C341.288 149.253 343.965 150.37 345.937 152.351C347.909 154.332 349.015 157.015 349.014 159.812L348.837 265.477C348.829 268.274 347.713 270.954 345.734 272.928C343.756 274.902 341.076 276.01 338.282 276.009ZM142.132 150.011C139.629 150.009 137.227 151.002 135.454 152.771C133.681 154.541 132.681 156.942 132.674 159.448L132.497 265.114C132.496 267.62 133.487 270.024 135.254 271.8C137.022 273.575 139.42 274.576 141.923 274.583L338.284 274.913C340.787 274.914 343.189 273.921 344.962 272.152C346.735 270.383 347.735 267.982 347.742 265.475L347.919 159.81C347.921 157.304 346.929 154.899 345.162 153.124C343.395 151.349 340.996 150.348 338.493 150.341L142.132 150.011Z" fill="#CACACA"/>
<path d="M316.017 217.743L160.02 217.481C158.765 217.477 157.541 217.085 156.516 216.359C155.491 215.633 154.715 214.608 154.294 213.424L134.44 157.362C134.115 156.442 134.014 155.458 134.148 154.492C134.281 153.525 134.644 152.605 135.206 151.808C135.769 151.012 136.514 150.362 137.379 149.913C138.244 149.465 139.205 149.231 140.179 149.231L340.24 149.259C341.201 149.26 342.149 149.488 343.006 149.926C343.862 150.364 344.603 150.999 345.167 151.778C345.731 152.558 346.103 153.46 346.252 154.411C346.4 155.363 346.322 156.336 346.023 157.25L346.045 157.26L321.618 214.059C321.148 215.155 320.366 216.089 319.37 216.744C318.374 217.398 317.208 217.746 316.017 217.743ZM340.246 150.355L140.179 150.327C139.38 150.327 138.592 150.518 137.882 150.886C137.172 151.254 136.561 151.787 136.1 152.441C135.639 153.094 135.341 153.849 135.232 154.641C135.122 155.434 135.205 156.241 135.472 156.995L155.325 213.057C155.671 214.029 156.307 214.869 157.148 215.465C157.989 216.061 158.992 216.382 160.022 216.385L316.019 216.647C316.996 216.65 317.952 216.365 318.769 215.828C319.586 215.29 320.227 214.525 320.613 213.626L344.824 157.33C345.15 156.57 345.283 155.741 345.211 154.917C345.139 154.093 344.864 153.3 344.41 152.609C343.957 151.918 343.339 151.35 342.612 150.957C341.885 150.563 341.073 150.357 340.246 150.355Z" fill="#CACACA"/>
<path d="M254.001 217.089C254 218.905 253.641 220.702 252.945 222.379C252.25 224.056 251.231 225.579 249.947 226.861C248.663 228.143 247.139 229.16 245.463 229.852C243.787 230.544 241.99 230.899 240.177 230.896C238.363 230.893 236.568 230.532 234.894 229.834C233.22 229.136 231.7 228.115 230.42 226.828C229.141 225.542 228.127 224.015 227.437 222.336C226.747 220.657 226.394 218.859 226.399 217.043" fill="#CACACA"/>
<path d="M431.384 298.116L432.055 298.103C432.04 297.36 431.621 279.845 424.734 275.004L424.349 275.553C430.958 280.199 431.381 297.937 431.384 298.116Z" fill="#F1F1F1"/>
<path d="M421.19 274.785C423.041 274.785 424.541 273.283 424.541 271.43C424.541 269.576 423.041 268.074 421.19 268.074C419.339 268.074 417.838 269.576 417.838 271.43C417.838 273.283 419.339 274.785 421.19 274.785Z" fill="#F1F1F1"/>
<path d="M421.867 283.278C423.611 283.826 425.467 283.907 427.251 283.511C426.119 282.067 424.593 280.982 422.858 280.386C421.124 279.79 419.254 279.71 417.474 280.153C418.64 281.562 420.155 282.64 421.867 283.278Z" fill="#F1F1F1"/>
<path d="M154.329 298.276L153.356 298.257C153.732 287.427 154.887 276.638 156.81 265.974C161.017 243.142 168.013 228.147 177.603 221.406L178.161 222.203C155.759 237.951 154.341 297.675 154.329 298.276Z" fill="#F1F1F1"/>
<path d="M166.49 298.046L165.517 298.027C165.538 296.949 166.146 271.527 176.143 264.5L176.702 265.297C167.108 272.04 166.495 297.787 166.49 298.046Z" fill="#F1F1F1"/>
<path d="M183.696 222.291C186.382 222.291 188.56 220.111 188.56 217.421C188.56 214.731 186.382 212.551 183.696 212.551C181.009 212.551 178.831 214.731 178.831 217.421C178.831 220.111 181.009 222.291 183.696 222.291Z" fill="#F1F1F1"/>
<path d="M181.287 264.174C183.973 264.174 186.151 261.994 186.151 259.304C186.151 256.614 183.973 254.434 181.287 254.434C178.6 254.434 176.422 256.614 176.422 259.304C176.422 261.994 178.6 264.174 181.287 264.174Z" fill="#F1F1F1"/>
<path d="M164.223 225.213C164.71 228.97 164.204 232.789 162.754 236.288C160.222 233.455 158.562 229.949 157.975 226.192C157.388 222.436 157.898 218.59 159.444 215.117C161.892 218.005 163.54 221.487 164.223 225.213Z" fill="#F1F1F1"/>
<path d="M180.124 239.411C176.513 240.546 172.669 240.712 168.975 239.893C171.32 236.903 174.48 234.656 178.072 233.422C181.664 232.188 185.536 232.021 189.221 232.94C186.807 235.857 183.67 238.089 180.124 239.411Z" fill="#F1F1F1"/>
<path d="M180.303 276.504C177.773 277.299 175.078 277.416 172.489 276.842C174.133 274.746 176.347 273.171 178.865 272.306C181.383 271.442 184.097 271.324 186.68 271.968C184.988 274.013 182.789 275.577 180.303 276.504Z" fill="#F1F1F1"/>
<path d="M79.1706 90.8799L76.8299 76.5437L70.221 74.8895C70.221 74.8895 64.9756 73.272 63.7496 83.8496C62.5236 94.4273 63.474 114.176 63.474 114.176L48.9637 160.18C47.8495 160.71 46.9115 161.55 46.262 162.6C45.6125 163.65 45.279 164.865 45.3015 166.1C45.3239 167.335 45.7014 168.537 46.3886 169.563C47.0759 170.588 48.0438 171.394 49.1765 171.883C50.3093 172.372 51.5588 172.524 52.7756 172.321C53.9924 172.117 55.1248 171.567 56.0373 170.736C56.9498 169.905 57.6038 168.828 57.9209 167.635C58.238 166.441 58.2048 165.182 57.8252 164.006L76.6923 120.793L79.1706 90.8799Z" fill="#FFB7B7"/>
<path d="M119.36 79.597L115.89 65.492L121.319 61.3727C121.319 61.3727 125.509 57.8232 130.785 67.0694C136.061 76.3157 142.932 94.8524 142.932 94.8524L174.319 131.457C175.552 131.507 176.744 131.911 177.753 132.621C178.762 133.332 179.545 134.318 180.009 135.463C180.473 136.607 180.597 137.861 180.367 139.075C180.137 140.288 179.563 141.41 178.713 142.305C177.863 143.2 176.774 143.831 175.575 144.122C174.376 144.413 173.119 144.352 171.954 143.947C170.788 143.541 169.765 142.808 169.005 141.835C168.245 140.862 167.782 139.69 167.67 138.46L133.371 106.134L119.36 79.597Z" fill="#FFB7B7"/>
<path d="M146.484 290.765L154.354 290.765L158.099 260.371L146.482 260.372L146.484 290.765Z" fill="#FFB7B7"/>
<path d="M144.476 288.192L159.976 288.191H159.977C162.596 288.192 165.109 289.233 166.961 291.088C168.814 292.943 169.854 295.458 169.855 298.081V298.402L144.476 298.403L144.476 288.192Z" fill="#2F2E41"/>
<path d="M47.6165 290.765L55.4871 290.765L59.2317 260.371L47.6149 260.372L47.6165 290.765Z" fill="#FFB7B7"/>
<path d="M45.6086 288.192L61.109 288.191H61.1096C63.7293 288.192 66.2417 289.233 68.0942 291.088C69.9466 292.943 70.9874 295.458 70.9876 298.081V298.402L45.6091 298.403L45.6086 288.192Z" fill="#2F2E41"/>
<path d="M95.8885 52.5816C107.645 52.5816 117.176 43.0398 117.176 31.2693C117.176 19.4989 107.645 9.95703 95.8885 9.95703C84.1316 9.95703 74.6008 19.4989 74.6008 31.2693C74.6008 43.0398 84.1316 52.5816 95.8885 52.5816Z" fill="#2F2E41"/>
<path d="M79.2725 19.7781C82.7125 16.3341 83.4097 11.4483 80.8297 8.86529C78.2497 6.2823 73.3695 6.98027 69.9295 10.4243C66.4895 13.8682 65.7923 18.7541 68.3723 21.3371C70.9523 23.9201 75.8325 23.2221 79.2725 19.7781Z" fill="#2F2E41"/>
<path d="M118.076 13.0102C119.509 9.6509 117.045 5.37667 112.571 3.4634C108.097 1.55013 103.308 2.72233 101.875 6.08159C100.442 9.44084 102.907 13.7151 107.38 15.6283C111.854 17.5416 116.643 16.3694 118.076 13.0102Z" fill="#2F2E41"/>
<path d="M112.416 45.0354C117.202 36.2701 113.985 25.2801 105.23 20.4886C96.4745 15.697 85.4972 18.9184 80.7112 27.6837C75.9252 36.449 79.1429 47.439 87.898 52.2305C96.6532 57.0221 107.63 53.8007 112.416 45.0354Z" fill="#FFB7B7"/>
<path d="M77.5801 24.9788C81.7086 27.8275 86.6087 29.3437 91.6228 29.3236C89.8342 30.5652 87.7981 31.4039 85.6546 31.7818C92.3212 33.2135 99.2111 33.2522 105.893 31.8957C107.379 31.6572 108.812 31.1644 110.13 30.4388C110.787 30.0716 111.359 29.57 111.81 28.9667C112.26 28.3634 112.579 27.672 112.745 26.9373C113.189 24.3977 111.213 22.0904 109.159 20.5354C106.014 18.191 102.387 16.5757 98.5423 15.8065C94.6972 15.0372 90.7295 15.1333 86.926 16.0876C84.4425 16.7303 81.9546 17.8162 80.3415 19.813C78.7284 21.8098 78.2505 24.8881 79.7874 26.9443L77.5801 24.9788Z" fill="#2F2E41"/>
<path d="M87.5093 59.8776L69.6275 74.4981L85.2517 111.795L85.5497 117.763C85.5497 117.763 69.3303 132.734 59.2948 174.557C49.2593 216.38 28.9902 271.953 28.9902 271.953L69.5393 281.884L97.7322 187.276L133.672 261.499L138.784 283.452L170.129 274.741L158.032 215.827L128.362 124.378L130.798 99.1148C130.798 99.1148 136.227 86.5048 126.795 73.1543L123.837 60.6096L108.522 57.9961L87.5093 59.8776Z" fill="#2F2E41"/>
<path d="M239.226 208.525C236.862 208.518 234.507 208.213 232.219 207.618L231.768 207.493L231.349 207.283C216.22 199.689 203.456 189.658 193.413 177.469C185.099 167.32 178.617 155.796 174.258 143.417C169.046 128.596 166.539 112.957 166.855 97.2474C166.862 96.9176 166.867 96.663 166.867 96.4876C166.867 88.851 171.101 82.1505 177.654 79.417C182.669 77.325 228.203 58.6008 231.493 57.2479C237.688 54.1398 244.298 56.734 245.356 57.1876C247.729 58.1588 289.822 75.3954 298.918 79.7319C308.293 84.2012 310.794 92.2301 310.794 96.2696C310.794 114.558 307.631 131.649 301.391 147.07C296.352 159.552 289.21 171.075 280.277 181.137C263.041 200.556 245.8 207.441 245.633 207.501C243.573 208.211 241.405 208.558 239.226 208.525ZM235.172 198.471C236.667 198.806 240.108 199.309 242.351 198.49C245.2 197.45 259.631 189.958 273.115 174.766C291.746 153.775 301.2 127.388 301.214 96.3371C301.18 95.708 300.734 91.2213 294.799 88.392C285.879 84.1395 242.127 66.2284 241.686 66.0479L241.565 65.9966C240.648 65.6119 237.73 64.8017 235.719 65.8569L235.316 66.0449C234.828 66.2454 186.494 86.1206 181.339 88.2709C177.733 89.7751 176.448 93.5017 176.448 96.4876C176.448 96.7058 176.442 97.0232 176.434 97.4334C176.022 118.68 180.933 170.959 235.172 198.471Z" fill="#3F3D56"/>
<path d="M233.496 61.6048C233.496 61.6048 184.722 81.6602 179.496 83.8402C174.27 86.0201 171.657 91.2519 171.657 96.4838C171.657 101.716 167.738 169.984 233.496 202.992C233.496 202.992 239.464 204.645 243.992 202.992C248.52 201.339 306.004 173.436 306.004 96.2658C306.004 96.2658 306.004 88.418 296.859 84.0581C287.713 79.6983 243.498 61.6048 243.498 61.6048C243.498 61.6048 238.068 59.2069 233.496 61.6048Z" fill="#F25B38"/>
<path opacity="0.2" d="M238.722 77.3008V184.289C238.722 184.289 287.931 160.574 287.496 98.2282L238.722 77.3008Z" fill="#A8280B"/>
<path d="M451.453 298.932H0.547216C0.402085 298.932 0.262898 298.874 0.160275 298.771C0.0576525 298.668 0 298.529 0 298.384C0 298.238 0.0576525 298.099 0.160275 297.996C0.262898 297.894 0.402085 297.836 0.547216 297.836H451.453C451.598 297.836 451.737 297.894 451.84 297.996C451.942 298.099 452 298.238 452 298.384C452 298.529 451.942 298.668 451.84 298.771C451.737 298.874 451.598 298.932 451.453 298.932Z" fill="#CBCBCB"/>
</svg>
