<svg width="452" height="511" viewBox="0 0 452 511" fill="none" xmlns="http://www.w3.org/2000/svg">
<g clip-path="url(#clip0_6964_26079)">
<path d="M306.371 402.359C320.72 388.849 328.118 368.609 320.409 351.488C309.188 368.716 290.714 382.284 269.295 389.029C260.953 391.656 251.359 393.823 246.822 400.449C243.999 404.572 243.793 409.735 245.065 414.404C246.337 419.072 248.956 423.367 251.55 427.602L251.565 428.8C271.869 423.633 292.023 415.87 306.371 402.359Z" fill="#F2F2F2"/>
<path d="M319.979 351.58C317.559 366.489 309.643 380.824 297.539 391.63C294.912 394.075 291.931 396.108 288.696 397.662C285.367 399.136 281.738 399.807 278.103 399.62C274.678 399.51 271.189 399.054 267.793 399.671C266.128 399.963 264.539 400.589 263.12 401.51C261.702 402.432 260.485 403.63 259.54 405.033C257.289 408.344 256.541 412.162 255.959 415.917C255.314 420.086 254.719 424.425 251.974 428.012C251.642 428.446 252.437 428.869 252.769 428.436C257.544 422.196 255.946 414.221 259.168 407.492C260.671 404.352 263.273 401.586 267.162 400.638C270.562 399.809 274.161 400.277 277.627 400.413C281.18 400.639 284.74 400.101 288.067 398.834C291.381 397.431 294.446 395.502 297.145 393.121C303.053 388.07 308.102 382.093 312.094 375.423C316.523 368.115 319.516 360.028 320.911 351.597C320.995 351.082 320.062 351.068 319.979 351.58Z" fill="white"/>
<path d="M301.687 388.298C304.151 389.826 307.03 390.548 309.923 390.363C312.817 390.178 315.581 389.096 317.83 387.266C318.256 386.899 317.62 386.307 317.193 386.674C315.102 388.381 312.528 389.389 309.834 389.556C307.14 389.723 304.461 389.042 302.175 387.607C301.692 387.297 301.207 387.99 301.687 388.298Z" fill="white"/>
<path d="M279.831 399.873C279.352 397.269 279.429 394.592 280.059 392.02C280.688 389.448 281.855 387.038 283.482 384.949C283.813 384.513 283.018 384.09 282.687 384.525C280.998 386.702 279.79 389.212 279.141 391.89C278.492 394.568 278.418 397.354 278.924 400.062C279.024 400.577 279.93 400.386 279.831 399.873Z" fill="white"/>
<path d="M315.342 367.896C314.324 367.533 313.417 366.917 312.704 366.105C311.992 365.292 311.499 364.312 311.273 363.255C311.181 362.739 310.274 362.932 310.366 363.444C310.622 364.61 311.167 365.692 311.951 366.591C312.736 367.49 313.734 368.176 314.854 368.587C314.96 368.64 315.082 368.656 315.198 368.632C315.314 368.608 315.419 368.545 315.495 368.454C315.526 368.408 315.547 368.356 315.556 368.302C315.566 368.248 315.563 368.192 315.548 368.139C315.533 368.086 315.507 368.037 315.472 367.995C315.436 367.953 315.392 367.919 315.342 367.896Z" fill="white"/>
<path d="M252.369 332.021C252.416 332.345 252.463 332.669 252.504 332.997C253.109 337.344 253.305 341.738 253.092 346.122C253.082 346.461 253.065 346.805 253.044 347.143C252.369 357.808 249.462 368.213 244.513 377.685C242.5 381.552 240.175 385.248 237.561 388.737C233.92 393.606 229.526 398.634 227.993 404.103C227.826 404.669 227.7 405.247 227.614 405.832L249.883 428.723C249.963 428.753 250.038 428.787 250.119 428.817L250.96 429.767C251.111 429.593 251.263 429.41 251.413 429.237C251.501 429.136 251.584 429.031 251.672 428.93C251.729 428.862 251.785 428.793 251.841 428.734C251.86 428.711 251.879 428.688 251.892 428.67C251.948 428.611 251.993 428.551 252.043 428.496C252.895 427.476 253.741 426.449 254.579 425.415C254.585 425.411 254.585 425.411 254.587 425.401C260.954 417.509 266.62 409.085 270.634 400.182C270.755 399.914 270.882 399.642 270.992 399.363C272.765 395.372 274.169 391.227 275.185 386.979C275.727 384.673 276.135 382.337 276.407 379.983C277.094 373.908 276.677 367.759 275.176 361.833C272.178 349.958 264.843 339.049 253.26 332.513C252.963 332.346 252.672 332.184 252.369 332.021Z" fill="#F2F2F2"/>
<path d="M252.085 332.319C260.484 345.49 264.095 361.077 261.918 376.037C261.524 379.33 260.548 382.527 259.036 385.479C257.353 388.445 254.899 390.901 251.935 392.585C249.124 394.29 246.023 395.751 243.738 398.019C242.615 399.124 241.769 400.479 241.269 401.974C240.77 403.468 240.631 405.06 240.864 406.618C241.361 410.44 243.409 413.879 245.546 417.182C247.919 420.849 250.451 424.625 250.744 428.924C250.78 429.445 251.708 429.367 251.673 428.847C251.162 421.366 244.361 415.835 242.271 408.777C241.296 405.483 241.457 401.914 243.905 399.122C246.046 396.681 249.242 395.172 252.105 393.467C255.031 391.851 257.518 389.543 259.347 386.745C261.025 383.878 262.141 380.718 262.636 377.434C263.852 370.156 263.741 362.719 262.309 355.482C260.681 347.074 257.468 339.052 252.842 331.845C252.552 331.39 251.797 331.867 252.085 332.319Z" fill="white"/>
<path d="M262.921 371.207C269.02 371.151 274.224 367.175 275.096 361.938C275.182 361.422 274.263 361.281 274.177 361.798C273.36 366.705 268.533 370.348 262.831 370.4C262.231 370.406 262.324 371.212 262.921 371.207Z" fill="white"/>
<path d="M253.49 391.883C251.381 390.202 249.635 388.109 248.358 385.733C247.082 383.356 246.302 380.744 246.065 378.057C246.027 377.536 245.099 377.614 245.137 378.135C245.389 380.931 246.207 383.648 247.541 386.118C248.875 388.589 250.697 390.763 252.897 392.508C253.333 392.868 253.924 392.241 253.49 391.883Z" fill="white"/>
<path d="M259.688 347.773C258.561 348.002 257.398 347.979 256.28 347.707C255.163 347.434 254.12 346.919 253.224 346.197C252.793 345.833 252.203 346.46 252.631 346.822C253.624 347.616 254.777 348.184 256.011 348.488C257.245 348.791 258.53 348.823 259.778 348.58C260.025 348.532 260.221 348.376 260.197 348.138C260.175 348.024 260.11 347.922 260.015 347.854C259.921 347.787 259.804 347.758 259.688 347.773Z" fill="white"/>
<path d="M200.769 428.119C173.054 447.073 145.497 451.884 123.176 441.664C94.5324 428.55 77.181 392.443 75.5713 342.603L77.2682 342.762C78.8551 391.909 95.7961 427.435 123.747 440.232C145.469 450.177 172.431 445.398 199.665 426.773L200.769 428.119Z" fill="#F2F2F2"/>
<path d="M372.047 107.18C369.317 137.259 361.542 168.976 349.347 199.579C334.267 237.423 313.664 270.756 289.764 295.974L288.438 294.817C312.222 269.72 332.731 236.534 347.749 198.847C361.32 164.789 369.393 129.347 371.104 96.3682L372.799 96.652C372.619 100.135 372.368 103.644 372.047 107.18Z" fill="#F2F2F2"/>
<path d="M298.419 64.4312L296.771 64.6117C289.425 35.7371 275.186 15.7331 255.592 6.76189C230.683 -4.64211 199.882 3.01588 168.863 28.3255C137.686 53.7644 110.086 93.9467 91.1485 141.472L89.5498 140.741C108.571 93.0074 136.312 52.6308 167.664 27.0506C199.172 1.34103 230.602 -6.37312 256.162 5.32948C276.318 14.5578 290.93 34.9949 298.419 64.4312Z" fill="#F2F2F2"/>
<path d="M389.842 315.816C356.274 369.234 315.547 407.401 275.165 423.286L274.349 421.788C314.451 406.013 354.939 368.041 388.354 314.867L389.842 315.816Z" fill="#F2F2F2"/>
<path d="M441.634 196.137C441.081 202.233 440.372 208.404 439.507 214.65L437.823 214.242C444.284 167.635 441.992 124.902 431.193 90.6534L432.816 90.3818C442.235 120.257 445.229 156.519 441.634 196.137Z" fill="#F2F2F2"/>
<path d="M91.0227 149.832C86.714 158.911 82.6158 168.317 78.8417 177.788C57.1234 232.291 46.1176 287.953 47.0169 338.759L45.3195 338.578C44.4192 287.583 55.4568 231.729 77.243 177.056C81.028 167.558 85.1379 158.126 89.459 149.021L91.0227 149.832Z" fill="#F2F2F2"/>
<path d="M199.955 465.569C172.239 484.524 144.683 489.334 122.362 479.115C93.7179 466 76.3665 429.894 74.7568 380.053L76.4537 380.212C78.0406 429.359 94.9817 464.885 122.932 477.682C144.655 487.628 171.616 482.848 198.85 464.223L199.955 465.569Z" fill="#F2F2F2"/>
<path d="M371.232 144.629C368.503 174.709 360.727 206.425 348.533 237.028C333.452 274.872 312.849 308.205 288.949 333.423L287.623 332.266C311.407 307.169 331.917 273.984 346.934 236.296C360.506 202.239 368.578 166.797 370.289 133.817L371.984 134.101C371.804 137.584 371.554 141.094 371.232 144.629Z" fill="#F2F2F2"/>
<path d="M368.243 103.959L366.595 104.139C359.249 75.2645 345.01 55.2604 325.416 46.2892C300.507 34.8852 269.706 42.5432 238.687 67.8529C207.51 93.2917 179.91 133.474 160.973 181L159.374 180.268C178.395 132.535 206.136 92.1582 237.488 66.5779C268.997 40.8684 300.426 33.1542 325.986 44.8568C346.143 54.0851 360.754 74.5222 368.243 103.959Z" fill="#F2F2F2"/>
<path d="M387.642 366.427C354.073 419.845 313.347 458.013 272.965 473.898L272.148 472.4C312.251 456.624 352.739 418.652 386.154 365.479L387.642 366.427Z" fill="#F2F2F2"/>
<path d="M440.82 233.586C440.266 239.683 439.557 245.853 438.692 252.099L437.009 251.691C443.47 205.084 441.178 162.351 430.379 128.103L432.001 127.831C441.42 157.707 444.414 193.969 440.82 233.586Z" fill="#F2F2F2"/>
<path d="M90.2073 187.282C85.8986 196.361 81.8004 205.767 78.0262 215.238C56.308 269.741 45.3021 325.403 46.2015 376.209L44.5041 376.028C43.6038 325.033 54.6414 269.179 76.4276 214.506C80.2125 205.009 84.3225 195.576 88.6436 186.472L90.2073 187.282Z" fill="#F2F2F2"/>
<path d="M414.931 161.002C416.807 158.181 415.697 154.142 412.45 151.982C409.204 149.822 405.051 150.357 403.175 153.178C401.298 155.999 402.409 160.037 405.655 162.198C408.902 164.358 413.055 163.823 414.931 161.002Z" fill="#FD6584"/>
<path d="M199.26 196.963C203.189 190.941 209.604 186.209 216.748 185.809C223.893 185.409 232.479 191.494 236.005 197.756C242.455 209.21 239.656 220.224 230.772 228.19C229.566 227.781 225.353 226.544 224.127 226.149L223.349 224.744L222.39 225.598C211.411 226.694 200.806 225.473 192.543 217.291C193.57 210.171 195.331 202.986 199.26 196.963Z" fill="#2F2E41"/>
<path d="M228.696 277.358L227.398 289.398L228.162 305.187L193.199 301.032L189.914 277.358L194.1 277.399L228.696 277.358Z" fill="#FFB6B6"/>
<path d="M214.341 225.328C222.359 225.328 228.859 218.826 228.859 210.807C228.859 202.787 222.359 196.285 214.341 196.285C206.323 196.285 199.823 202.787 199.823 210.807C199.823 218.826 206.323 225.328 214.341 225.328Z" fill="#FFB7B7"/>
<path d="M198.254 237.787L206.562 232.802L223.178 231.14L237.864 238.62L237.717 261.47L228.4 285.17L189.353 280.184L187.87 271.825C187.87 271.825 177.07 257.315 188.7 249.006L198.254 237.787Z" fill="#F25B38"/>
<path d="M208.913 188.753C212.059 187.871 215.384 187.851 218.54 188.694C221.697 189.537 224.569 191.213 226.856 193.546C229.143 195.879 230.762 198.784 231.543 201.958C232.323 205.131 232.237 208.455 231.293 211.584C222.451 212.29 213.711 211.464 206.821 205.207L206.208 199.839L203.695 204.331C201.159 203.618 198.62 202.9 196.076 202.177C196.854 199.012 198.449 196.106 200.702 193.75C202.955 191.394 205.786 189.671 208.913 188.753Z" fill="#2F2E41"/>
<path d="M148.391 169.936C147.997 170.776 147.793 171.692 147.791 172.619C147.789 173.546 147.991 174.463 148.382 175.304C148.773 176.145 149.343 176.89 150.053 177.486C150.763 178.083 151.595 178.517 152.49 178.757L179.539 229.806L190.457 221.377L160.436 173.848C160.739 172.317 160.471 170.727 159.681 169.38C158.891 168.034 157.635 167.023 156.15 166.541C154.666 166.059 153.056 166.138 151.626 166.764C150.196 167.39 149.045 168.519 148.391 169.936Z" fill="#FFB6B6"/>
<path d="M192.761 247.055C192.761 247.055 190.255 249.278 186.69 243.138C183.836 238.223 169.605 216.213 167.59 208.583C166.484 208.614 165.4 208.277 164.507 207.624C163.615 206.971 162.965 206.039 162.66 204.976L177.947 199.041C181.27 200.703 180.348 203.006 179.505 204.198L185.199 212.74L204.137 233.998L194.602 245.479L192.761 247.055Z" fill="#F25B38"/>
<path d="M451.175 511H0.824582C0.605888 511 0.396143 510.913 0.241504 510.759C0.0868636 510.604 0 510.394 0 510.175C0 509.957 0.0868636 509.747 0.241504 509.592C0.396143 509.437 0.605888 509.351 0.824582 509.351H451.175C451.394 509.351 451.604 509.437 451.758 509.592C451.913 509.747 452 509.957 452 510.175C452 510.394 451.913 510.604 451.758 510.759C451.604 510.913 451.394 511 451.175 511Z" fill="#CCCCCC"/>
<path d="M343.358 50.6923C335.23 42.6787 324.375 38.2559 313.49 35.4263C301.169 32.2233 288.427 30.3365 275.84 28.5263C262.721 26.6398 249.551 25.1847 236.328 24.161C223.123 23.1427 209.895 22.5597 196.642 22.4122C184.833 22.2799 172.945 22.2758 161.194 23.5863C150.125 24.8205 139.083 27.2974 129.105 32.3824C120.222 36.8113 112.76 43.6433 107.565 52.1023C102.79 59.9759 99.9502 69.4145 100.938 78.6698C101.401 83.2272 102.819 87.6358 105.101 91.6078C107.776 95.9971 111.184 99.8943 115.178 103.129C123.423 110.093 133.281 115.184 140.374 123.46C142.247 125.629 143.883 127.991 145.254 130.506C146.284 132.414 147.443 134.056 149.358 135.169C151.068 136.145 153.029 136.593 154.993 136.456C156.957 136.319 158.837 135.604 160.395 134.4C162.604 132.665 164.191 129.992 165.901 127.791L171.863 120.117C172.294 119.428 172.793 118.786 173.353 118.198C173.755 117.866 173.092 118.158 173.224 118.076C173.296 118.03 173.423 118.055 173.502 118.023C173.899 117.909 174.306 117.833 174.718 117.797C179.071 116.996 183.434 116.248 187.806 115.551C203.949 112.945 220.196 110.796 236.511 109.638C244.921 108.966 253.361 108.765 261.793 109.035C272.696 109.481 283.449 111.646 294.312 112.581C306.008 113.586 318.293 113.447 329.313 108.937C338.135 105.326 346.325 99.252 351.101 90.8623C353.367 86.8943 354.71 82.4664 355.029 77.9078C355.612 67.5679 350.585 57.8175 343.358 50.6923Z" fill="#E6E6E6"/>
<path d="M190.142 30.8867C188.062 30.8867 185.983 30.8977 183.906 30.9198C163.958 31.1315 143.343 32.7447 127.698 43.0291C113.813 52.1578 104.081 72.4918 112.317 87.0745C116.099 93.7706 122.951 98.6449 130.205 103.805C133.049 105.828 135.989 107.919 138.807 110.172C144.964 115.092 150.761 121.696 154.096 129.122L168.744 110.267L171.511 109.737C174.174 109.227 237.102 97.2915 270.617 101.166C273.699 101.523 276.814 101.933 279.827 102.329C293.442 104.121 306.302 105.813 318.647 103.315C331.536 100.706 345.688 90.7501 346.53 77.436C347.107 68.3211 341.179 58.3218 331.427 51.9615C321.567 45.5309 309.27 42.8758 297.519 40.7073C262.099 34.1793 226.158 30.8922 190.142 30.8867Z" fill="white"/>
<path d="M303.819 59.8983H162.36C161.544 59.8983 160.761 59.574 160.184 58.9966C159.606 58.4193 159.282 57.6362 159.282 56.8198C159.282 56.0033 159.606 55.2202 160.184 54.6429C160.761 54.0656 161.544 53.7412 162.36 53.7412H303.819C304.635 53.7412 305.418 54.0656 305.995 54.6429C306.572 55.2202 306.897 56.0033 306.897 56.8198C306.897 57.6362 306.572 58.4193 305.995 58.9966C305.418 59.574 304.635 59.8983 303.819 59.8983Z" fill="#F25B38"/>
<path d="M303.819 78.7948H162.36C161.544 78.7948 160.761 78.4704 160.184 77.8931C159.606 77.3158 159.282 76.5327 159.282 75.7162C159.282 74.8998 159.606 74.1167 160.184 73.5394C160.761 72.962 161.544 72.6377 162.36 72.6377H303.819C304.635 72.6377 305.418 72.962 305.995 73.5394C306.572 74.1167 306.897 74.8998 306.897 75.7162C306.897 76.5327 306.572 77.3158 305.995 77.8931C305.418 78.4704 304.635 78.7948 303.819 78.7948Z" fill="#F25B38"/>
<path d="M178.845 97.6913H162.36C161.544 97.6913 160.761 97.3669 160.184 96.7896C159.606 96.2123 159.282 95.4292 159.282 94.6127C159.282 93.7963 159.606 93.0132 160.184 92.4359C160.761 91.8585 161.544 91.5342 162.36 91.5342H178.845C179.661 91.5342 180.444 91.8585 181.021 92.4359C181.599 93.0132 181.923 93.7963 181.923 94.6127C181.923 95.4292 181.599 96.2123 181.021 96.7896C180.444 97.3669 179.661 97.6913 178.845 97.6913Z" fill="#F25B38"/>
<path d="M153.287 171.534C160.512 171.534 166.369 165.676 166.369 158.449C166.369 151.223 160.512 145.364 153.287 145.364C146.062 145.364 140.205 151.223 140.205 158.449C140.205 165.676 146.062 171.534 153.287 171.534Z" fill="#E6E6E6"/>
<path d="M115.225 319.353C117.101 316.532 115.991 312.494 112.744 310.334C109.498 308.173 105.345 308.709 103.469 311.53C101.592 314.351 102.703 318.389 105.949 320.549C109.196 322.71 113.349 322.174 115.225 319.353Z" fill="#F2F2F2"/>
<path d="M395.909 318.463C397.785 315.642 396.674 311.603 393.428 309.443C390.182 307.283 386.029 307.818 384.152 310.639C382.276 313.46 383.387 317.498 386.633 319.659C389.879 321.819 394.032 321.284 395.909 318.463Z" fill="#E6E6E6"/>
<path d="M289.951 216.636C291.827 213.815 290.716 209.777 287.47 207.617C284.224 205.457 280.071 205.992 278.194 208.813C276.318 211.634 277.429 215.672 280.675 217.833C283.921 219.993 288.074 219.457 289.951 216.636Z" fill="#E6E6E6"/>
<path d="M246.831 495.955H239.187L235.55 466.464H246.831V495.955Z" fill="#FFB6B6"/>
<path d="M250.865 509.202H245.384L244.405 504.026L241.899 509.202H227.36C226.663 509.202 225.985 508.979 225.423 508.566C224.862 508.153 224.447 507.572 224.24 506.906C224.032 506.241 224.043 505.526 224.27 504.867C224.498 504.208 224.93 503.639 225.503 503.243L237.113 495.223V489.989L249.326 490.718L250.865 509.202Z" fill="#2F2E41"/>
<path d="M203.894 495.955H196.249L192.612 466.464H203.894V495.955Z" fill="#FFB6B6"/>
<path d="M207.928 509.202H202.446L201.468 504.026L198.962 509.202H184.423C183.726 509.202 183.047 508.979 182.486 508.566C181.924 508.153 181.51 507.572 181.302 506.906C181.095 506.241 181.106 505.526 181.333 504.867C181.56 504.208 181.992 503.639 182.566 503.243L194.176 495.223V489.989L206.388 490.718L207.928 509.202Z" fill="#2F2E41"/>
<path d="M250.129 470.524H250.046L248.576 422.573C249.528 420.738 250.01 418.695 249.982 416.628C249.953 414.561 249.414 412.533 248.412 410.724L248.201 410.343L248.747 407.813C249.448 404.562 249.126 401.174 247.826 398.113L246.455 353.384C251.354 321.623 228.004 300.91 228.004 300.91H193.026L185.516 326.717C180.552 375.095 181.453 422.238 189.33 467.912L189.116 468.021C188.342 468.288 188.011 469.359 188.375 470.414C188.739 471.469 189.661 472.108 190.434 471.841L208.907 471.198C209.68 470.931 210.012 469.86 209.648 468.805C209.284 467.75 208.362 467.111 207.588 467.378L206.332 468.014L209.011 421.743L208.714 413.291L209.326 403.703L212.158 360.576L222.876 413.61L233.823 471.058C233.521 471.331 233.309 471.69 233.215 472.086C233.121 472.483 233.15 472.898 233.297 473.278C233.444 473.658 233.703 473.984 234.039 474.214C234.376 474.444 234.774 474.566 235.181 474.565H250.13C250.665 474.565 251.179 474.352 251.558 473.973C251.937 473.594 252.15 473.08 252.15 472.544C252.15 472.009 251.937 471.495 251.558 471.116C251.179 470.737 250.665 470.524 250.129 470.524Z" fill="#2F2E41"/>
<path d="M233.816 336.449C234.606 335.962 235.279 335.309 235.789 334.534C236.298 333.759 236.632 332.882 236.766 331.965C236.9 331.047 236.831 330.111 236.565 329.223C236.298 328.335 235.84 327.516 235.223 326.824L240.58 269.298L226.829 270.36L225.887 326.573C224.794 327.687 224.147 329.164 224.069 330.723C223.992 332.282 224.489 333.816 225.466 335.033C226.444 336.251 227.834 337.067 229.373 337.328C230.912 337.589 232.493 337.276 233.816 336.449Z" fill="#FFB6B6"/>
<path d="M237.354 238.85C237.354 238.85 240.669 238.365 240.285 245.454C239.977 251.13 241.438 286.113 238.942 293.599C239.883 294.179 240.605 295.056 240.994 296.092C241.382 297.127 241.415 298.263 241.087 299.319L225.049 295.9C223.181 292.688 223.568 289.39 224.926 288.855L224.846 278.589L221.302 244.751L234.951 239.158L237.354 238.85Z" fill="#F25B38"/>
</g>
<defs>
<clipPath id="clip0_6964_26079">
<rect width="452" height="511" fill="white"/>
</clipPath>
</defs>
</svg>
