<svg width="448" height="374" viewBox="0 0 448 374" fill="none" xmlns="http://www.w3.org/2000/svg">
<g clip-path="url(#clip0_5854_31712)">
<path d="M20.8172 356.382C27.0314 367.907 40.2202 372.855 40.2202 372.855C40.2202 372.855 43.3337 359.116 37.1195 347.592C30.9053 336.067 17.7165 331.119 17.7165 331.119C17.7165 331.119 14.603 344.857 20.8172 356.382Z" fill="#25282D"/>
<path d="M25.0883 352.591C36.3075 359.341 40.6283 372.749 40.6283 372.749C40.6283 372.749 26.7593 375.213 15.5401 368.462C4.32087 361.712 0 348.305 0 348.305C0 348.305 13.8691 345.841 25.0883 352.591Z" fill="#8AC5C7"/>
<path d="M276.624 17.9541H206.624V18.9541H276.624V17.9541Z" fill="#F2F2F2"/>
<path d="M257.624 18.7051H256.624V27.9554H257.624V18.7051Z" fill="#F2F2F2"/>
<path d="M227.124 18.7051H226.124V27.9554H227.124V18.7051Z" fill="#F2F2F2"/>
<path d="M312.124 65.9561H242.124V66.9561H312.124V65.9561Z" fill="#F2F2F2"/>
<path d="M262.124 56.9561H261.124V66.2064H262.124V56.9561Z" fill="#F2F2F2"/>
<path d="M292.624 56.9561H291.624V66.2064H292.624V56.9561Z" fill="#F2F2F2"/>
<path d="M405.124 88.457H335.124V89.4571H405.124V88.457Z" fill="#F2F2F2"/>
<path d="M355.124 79.457H354.124V88.7074H355.124V79.457Z" fill="#F2F2F2"/>
<path d="M385.624 79.457H384.624V88.7074H385.624V79.457Z" fill="#F2F2F2"/>
<path d="M398.124 320.466H328.124V321.466H398.124V320.466Z" fill="#F2F2F2"/>
<path d="M348.124 311.466H347.124V320.716H348.124V311.466Z" fill="#F2F2F2"/>
<path d="M378.624 311.466H377.624V320.716H378.624V311.466Z" fill="#F2F2F2"/>
<path d="M278.624 159.96H208.624V160.96H278.624V159.96Z" fill="#F2F2F2"/>
<path d="M228.624 150.96H227.624V160.21H228.624V150.96Z" fill="#F2F2F2"/>
<path d="M259.124 150.96H258.124V160.21H259.124V150.96Z" fill="#F2F2F2"/>
<path d="M300.624 280.465H230.624V281.465H300.624V280.465Z" fill="#F2F2F2"/>
<path d="M250.624 271.464H249.624V280.714H250.624V271.464Z" fill="#F2F2F2"/>
<path d="M281.124 271.464H280.124V280.714H281.124V271.464Z" fill="#F2F2F2"/>
<path d="M412.624 243.963H342.624V244.963H412.624V243.963Z" fill="#F2F2F2"/>
<path d="M362.624 234.963H361.624V244.213H362.624V234.963Z" fill="#F2F2F2"/>
<path d="M393.124 234.963H392.124V244.213H393.124V234.963Z" fill="#F2F2F2"/>
<path d="M181.03 351.105H62.6372V350.254H180.178V308.942H72.5902L67.3637 298.053L68.1317 297.685L73.1262 308.09H181.03V351.105Z" fill="#25282D"/>
<path d="M78.3941 371.974C83.3333 371.974 87.3374 367.97 87.3374 363.031C87.3374 358.091 83.3333 354.087 78.3941 354.087C73.4548 354.087 69.4507 358.091 69.4507 363.031C69.4507 367.97 73.4548 371.974 78.3941 371.974Z" fill="#F25B38"/>
<path d="M166.55 371.974C171.49 371.974 175.494 367.97 175.494 363.031C175.494 358.091 171.49 354.087 166.55 354.087C161.611 354.087 157.607 358.091 157.607 363.031C157.607 367.97 161.611 371.974 166.55 371.974Z" fill="#F25B38"/>
<path d="M270.464 178.62C273.521 178.62 276 176.141 276 173.083C276 170.026 273.521 167.547 270.464 167.547C267.406 167.547 264.927 170.026 264.927 173.083C264.927 176.141 267.406 178.62 270.464 178.62Z" fill="#F25B38"/>
<path d="M193.693 294.887H60.6184L31.8242 200.766H223.346L223.172 201.319L193.693 294.887ZM61.2484 294.036H193.068L222.185 201.617H32.9754L61.2484 294.036Z" fill="#25282D"/>
<path d="M183.305 289.99H66.4209L41.1299 206.516H209.35L209.197 207.007L183.305 289.99Z" fill="#F2F2F2"/>
<path d="M225.733 192.357L224.909 192.138L230.53 170.953H263.224V171.805H231.185L225.733 192.357Z" fill="#25282D"/>
<path d="M213.776 229.301H41.1294V230.153H213.776V229.301Z" fill="#25282D"/>
<path d="M203.889 260.682H50.7295V261.533H203.889V260.682Z" fill="#25282D"/>
<path d="M128.008 201.192H127.157V294.462H128.008V201.192Z" fill="#25282D"/>
<path d="M166.143 201.165L160.029 294.433L160.879 294.488L166.993 201.221L166.143 201.165Z" fill="#25282D"/>
<path d="M89.0405 201.164L88.1904 201.22L94.2691 294.49L95.1192 294.434L89.0405 201.164Z" fill="#25282D"/>
<path d="M448 372.515H0V373.515H448V372.515Z" fill="#25282D"/>
<path d="M297.706 30.9391C297.706 30.9391 305.015 51.743 300.517 54.9436C296.019 58.1443 315.697 84.2825 315.697 84.2825L339.312 77.8813L326.38 56.0105C326.38 56.0105 324.693 34.1397 324.693 30.9391C324.693 27.7385 297.706 30.9391 297.706 30.9391Z" fill="#A0616A"/>
<path opacity="0.1" d="M297.706 30.9391C297.706 30.9391 305.015 51.743 300.517 54.9436C296.019 58.1443 315.697 84.2825 315.697 84.2825L339.312 77.8813L326.38 56.0105C326.38 56.0105 324.693 34.1397 324.693 30.9391C324.693 27.7385 297.706 30.9391 297.706 30.9391Z" fill="black"/>
<path d="M285.437 179.234C285.437 179.234 283.303 205.906 285.437 219.775C287.57 233.644 290.771 272.051 290.771 272.051C290.771 272.051 290.771 344.598 302.506 345.665C314.241 346.732 322.776 347.799 323.842 343.532C324.909 339.264 318.508 337.13 321.709 334.997C324.909 332.863 325.976 325.395 321.709 316.86C317.441 308.325 321.709 221.909 321.709 221.909L341.978 276.319C341.978 276.319 344.112 321.127 346.246 327.529C348.379 333.93 344.112 345.665 351.58 346.732C359.048 347.799 367.582 341.398 371.85 339.264C376.117 337.13 365.449 337.13 367.582 336.063C369.716 334.997 376.117 331.796 373.983 330.729C371.85 329.662 369.716 278.453 369.716 278.453C369.716 278.453 363.848 169.099 356.381 164.831C348.913 160.564 344.112 167.914 344.112 167.914L285.437 179.234Z" fill="#25282D"/>
<path d="M304.64 341.397V349.932C304.64 349.932 295.038 373.133 304.64 373.133C314.241 373.133 321.709 375.537 321.709 372.337V343.531L304.64 341.397Z" fill="#25282D"/>
<path d="M367.582 341.383V349.918C367.582 349.918 377.184 373.118 367.582 373.118C357.981 373.118 350.513 375.523 350.513 372.322V343.517L367.582 341.383Z" fill="#25282D"/>
<path d="M312.641 46.4092C323.246 46.4092 331.844 37.8115 331.844 27.2056C331.844 16.5997 323.246 8.00195 312.641 8.00195C302.035 8.00195 293.438 16.5997 293.438 27.2056C293.438 37.8115 302.035 46.4092 312.641 46.4092Z" fill="#A0616A"/>
<path d="M306.773 62.9453C306.773 62.9453 312.107 78.9483 320.642 75.7477L329.177 72.5471L344.112 174.966C344.112 174.966 332.377 192.036 315.308 181.368C298.239 170.699 306.773 62.9453 306.773 62.9453Z" fill="#8AC5C7"/>
<path d="M321.709 59.7446L326.51 49.6094C326.51 49.6094 354.781 62.9452 359.048 67.2127C363.315 71.4802 363.315 77.8814 363.315 77.8814L355.847 104.553C355.847 104.553 357.981 163.231 357.981 165.365C357.981 167.498 365.449 179.234 360.115 174.966C354.781 170.699 353.714 166.431 349.447 172.833C345.179 179.234 335.578 186.702 335.578 186.702L321.709 59.7446Z" fill="#F25B38"/>
<path d="M359.048 136.56L355.847 166.432C355.847 166.432 336.644 183.502 340.912 184.569C345.179 185.636 347.313 181.368 347.313 181.368C347.313 181.368 354.78 188.836 359.048 184.569C363.315 180.301 373.983 139.76 373.983 139.76L359.048 136.56Z" fill="#A0616A"/>
<path d="M313.05 0.064938C308.793 -0.0872528 304.237 -0.162536 300.648 2.13162C298.997 3.28296 297.548 4.70095 296.362 6.32755C292.866 10.7469 289.846 16.3076 291.144 21.7908L292.652 21.2026C292.652 22.6663 292.327 24.1116 291.7 25.4341C291.912 24.8165 292.623 25.8148 292.433 26.4395L290.771 31.8901C293.503 30.8888 296.9 32.9161 297.316 35.7951C297.505 29.4642 298.162 22.2047 303.298 18.4978C305.887 16.6283 309.165 16.0577 312.318 15.5509C315.228 15.0834 318.277 14.6376 321.064 15.5953C323.85 16.5531 326.223 19.403 325.591 22.281C326.876 21.8384 328.313 22.7339 328.948 23.9354C329.583 25.1369 329.616 26.5542 329.636 27.9131C331.005 28.881 332.564 26.9589 333.122 25.3774C334.432 21.6651 335.597 17.7134 334.891 13.8405C334.185 9.96752 331.029 6.26632 327.093 6.25318C327.57 5.72833 327.825 5.03819 327.803 4.32874L324.559 4.05458C325.383 3.93794 326.14 3.53853 326.702 2.92476C325.399 4.35828 315.157 0.140246 313.05 0.064938Z" fill="#25282D"/>
<path d="M312.107 56.5437C312.107 56.5437 303.423 48.0329 300.297 48.5543C297.172 49.0756 292.904 56.5437 292.904 56.5437C292.904 56.5437 267.301 65.0786 268.367 73.6136C269.434 82.1485 281.169 123.756 281.169 123.756C281.169 123.756 290.771 173.899 282.236 179.234C273.702 184.568 322.776 198.437 323.842 192.036C324.909 185.635 327.043 121.623 323.842 112.021C320.642 102.419 312.107 56.5437 312.107 56.5437Z" fill="#F25B38"/>
<path d="M349.446 73.6143H362.638C362.638 73.6143 371.85 114.155 372.917 118.423C373.983 122.69 376.117 142.961 375.05 142.961C373.983 142.961 352.647 138.693 352.647 141.894L349.446 73.6143Z" fill="#F25B38"/>
<path d="M349 174.006H298.5C293.572 151.336 293.16 129.431 298.5 108.504H349C340.85 129.055 340.341 150.809 349 174.006Z" fill="#F2F2F2"/>
<path d="M277.969 146.161L292.905 152.562C292.905 152.562 321.709 156.83 321.709 145.094C321.709 133.358 292.905 139.76 292.905 139.76L283.303 136.689L277.969 146.161Z" fill="#A0616A"/>
<path d="M281.17 67.2129L268.368 70.4135L258.766 126.957C258.766 126.957 255.566 141.894 260.9 142.961C266.234 144.027 281.17 152.562 281.17 152.562C281.17 152.562 283.303 136.559 287.571 136.559L276.902 128.024L283.303 90.684L281.17 67.2129Z" fill="#F25B38"/>
<path d="M100.124 176.461H30.124V177.461H100.124V176.461Z" fill="#F2F2F2"/>
<path d="M50.124 167.46H49.124V176.71H50.124V167.46Z" fill="#F2F2F2"/>
<path d="M80.624 167.46H79.624V176.71H80.624V167.46Z" fill="#F2F2F2"/>
<path d="M124.624 28.4551H54.624V29.4551H124.624V28.4551Z" fill="#F2F2F2"/>
<path d="M105.624 29.2051H104.624V38.4554H105.624V29.2051Z" fill="#F2F2F2"/>
<path d="M75.124 29.2051H74.124V38.4554H75.124V29.2051Z" fill="#F2F2F2"/>
<path d="M195.124 126.959H125.124V127.959H195.124V126.959Z" fill="#F2F2F2"/>
<path d="M176.124 127.709H175.124V136.959H176.124V127.709Z" fill="#F2F2F2"/>
<path d="M145.624 127.709H144.624V136.959H145.624V127.709Z" fill="#F2F2F2"/>
<path d="M76.124 126.459H6.12402V127.459H76.124V126.459Z" fill="#F2F2F2"/>
<path d="M57.124 127.209H56.124V136.459H57.124V127.209Z" fill="#F2F2F2"/>
<path d="M26.624 127.209H25.624V136.459H26.624V127.209Z" fill="#F2F2F2"/>
<path d="M160.124 76.457H90.124V77.4571H160.124V76.457Z" fill="#F2F2F2"/>
<path d="M110.124 67.4561H109.124V76.7064H110.124V67.4561Z" fill="#F2F2F2"/>
<path d="M140.624 67.4561H139.624V76.7064H140.624V67.4561Z" fill="#F2F2F2"/>
</g>
<defs>
<clipPath id="clip0_5854_31712">
<rect width="448" height="374" fill="white"/>
</clipPath>
</defs>
</svg>
