<svg width="20" height="20" viewBox="0 0 20 20" fill="none" xmlns="http://www.w3.org/2000/svg">
<path fill-rule="evenodd" clip-rule="evenodd" d="M20 10C20 15.5228 15.5228 20 10 20C4.47715 20 0 15.5228 0 10C0 4.47715 4.47715 0 10 0C15.5228 0 20 4.47715 20 10ZM12.9697 6.46967C13.2626 6.17678 13.7374 6.17678 14.0303 6.46967C14.3232 6.76256 14.3232 7.23744 14.0303 7.53033L11.5607 10L14.0303 12.4697C14.3232 12.7626 14.3232 13.2374 14.0303 13.5303C13.7374 13.8232 13.2626 13.8232 12.9697 13.5303L9.96967 10.5303C9.67678 10.2374 9.67678 9.76256 9.96967 9.46967L12.9697 6.46967ZM10.0303 6.46967C9.73744 6.17678 9.26256 6.17678 8.96967 6.46967L5.96967 9.46967C5.67678 9.76256 5.67678 10.2374 5.96967 10.5303L8.96967 13.5303C9.26256 13.8232 9.73744 13.8232 10.0303 13.5303C10.3232 13.2374 10.3232 12.7626 10.0303 12.4697L7.56066 10L10.0303 7.53033C10.3232 7.23744 10.3232 6.76256 10.0303 6.46967Z" fill="#F25B38"/>
</svg>
