<svg width="39" height="39" viewBox="0 0 39 39" fill="none" xmlns="http://www.w3.org/2000/svg">
<path d="M28.1243 7.08965L24.9243 5.41037C22.1153 3.93627 20.7108 3.19922 19.2 3.19922C17.6892 3.19922 16.2847 3.93627 13.4757 5.41036L12.9609 5.6805L27.2378 13.8387L33.6645 10.6253C32.6306 9.45441 30.9623 8.57896 28.1243 7.08965Z" fill="#525965"/>
<path d="M34.7974 12.7422L28.4 15.9409V20.7992C28.4 21.462 27.8628 21.9992 27.2 21.9992C26.5373 21.9992 26 21.462 26 20.7992V17.1409L20.4 19.9409V35.0456C21.5487 34.7595 22.8556 34.0737 24.9243 32.9881L28.1243 31.3088C31.567 29.5022 33.2883 28.5988 34.2442 26.9756C35.2 25.3524 35.2 23.3325 35.2 19.2928V19.1056C35.2 16.0774 35.2 14.1841 34.7974 12.7422Z" fill="#525965"/>
<path d="M18 35.0456V19.9409L3.60263 12.7422C3.20001 14.1841 3.20001 16.0774 3.20001 19.1056V19.2928C3.20001 23.3325 3.20001 25.3524 4.15585 26.9756C5.11168 28.5988 6.83301 29.5021 10.2757 31.3088L13.4757 32.9881C15.5444 34.0737 16.8513 34.7595 18 35.0456Z" fill="#525965"/>
<path d="M4.73552 10.6253L19.2 17.8576L24.6579 15.1287L10.4393 7.00378L10.2757 7.08965C7.43769 8.57896 5.76945 9.45441 4.73552 10.6253Z" fill="#525965"/>
</svg>
