<svg width="32" height="32" viewBox="0 0 32 32" fill="none" xmlns="http://www.w3.org/2000/svg">
<path d="M23.437 5.90804L20.7703 4.50864C18.4295 3.28022 17.259 2.66602 16 2.66602C14.741 2.66602 13.5706 3.28022 11.2297 4.50864L8.56308 5.90804C6.19808 7.14913 4.80789 7.87868 3.94628 8.85444L16 14.8813L28.0538 8.85444C27.1922 7.87868 25.802 7.14914 23.437 5.90804Z" fill="white"/>
<path d="M28.9978 10.6185L17 16.6174V29.2047C17.9572 28.9663 19.0464 28.3947 20.7703 27.4901L23.437 26.0907C26.3059 24.5851 27.7403 23.8324 28.5368 22.4797C29.3334 21.127 29.3334 19.4438 29.3334 16.0773V15.9214C29.3334 13.3978 29.3334 11.8201 28.9978 10.6185Z" fill="white"/>
<path d="M15 29.2047V16.6174L3.00221 10.6185C2.66669 11.8201 2.66669 13.3978 2.66669 15.9214V16.0773C2.66669 19.4438 2.66669 21.127 3.46322 22.4797C4.25975 23.8324 5.69419 24.5851 8.56308 26.0907L11.2297 27.4901C12.9537 28.3947 14.0428 28.9663 15 29.2047Z" fill="white"/>
<path d="M23.437 5.90804L20.7703 4.50864C18.4295 3.28022 17.259 2.66602 16 2.66602C14.741 2.66602 13.5706 3.28022 11.2297 4.50864L8.56308 5.90804C6.19808 7.14913 4.80789 7.87868 3.94628 8.85444L16 14.8813L28.0538 8.85444C27.1922 7.87868 25.802 7.14914 23.437 5.90804Z" stroke="white" stroke-width="1.5" stroke-linecap="round"/>
<path d="M28.9978 10.6185L17 16.6174V29.2047C17.9572 28.9663 19.0464 28.3947 20.7703 27.4901L23.437 26.0907C26.3059 24.5851 27.7403 23.8324 28.5368 22.4797C29.3334 21.127 29.3334 19.4438 29.3334 16.0773V15.9214C29.3334 13.3978 29.3334 11.8201 28.9978 10.6185Z" stroke="white" stroke-width="1.5" stroke-linecap="round"/>
<path d="M15 29.2047V16.6174L3.00221 10.6185C2.66669 11.8201 2.66669 13.3978 2.66669 15.9214V16.0773C2.66669 19.4438 2.66669 21.127 3.46322 22.4797C4.25975 23.8324 5.69419 24.5851 8.56308 26.0907L11.2297 27.4901C12.9537 28.3947 14.0428 28.9663 15 29.2047Z" stroke="white" stroke-width="1.5" stroke-linecap="round"/>
</svg>
