<svg width="20" height="18" viewBox="0 0 20 18" fill="none" xmlns="http://www.w3.org/2000/svg">
<path fill-rule="evenodd" clip-rule="evenodd" d="M10 7.25C10.4142 7.25 10.75 7.58579 10.75 8V9.25H12C12.4142 9.25 12.75 9.58579 12.75 10C12.75 10.4142 12.4142 10.75 12 10.75H10.75V12C10.75 12.4142 10.4142 12.75 10 12.75C9.58579 12.75 9.25 12.4142 9.25 12V10.75H8C7.58579 10.75 7.25 10.4142 7.25 10C7.25 9.58579 7.58579 9.25 8 9.25H9.25V8C9.25 7.58579 9.58579 7.25 10 7.25Z" fill="#525965"/>
<path fill-rule="evenodd" clip-rule="evenodd" d="M7.77778 18H12.2222C15.3433 18 16.9038 18 18.0248 17.2646C18.51 16.9462 18.9267 16.5371 19.251 16.0607C20 14.9601 20 13.4279 20 10.3636C20 7.29936 20 5.76721 19.251 4.6666C18.9267 4.19014 18.51 3.78104 18.0248 3.46268C17.3044 2.99013 16.4027 2.82123 15.022 2.76086C14.3631 2.76086 13.7959 2.27068 13.6667 1.63636C13.4728 0.684888 12.6219 0 11.6337 0H8.36634C7.37805 0 6.52715 0.684888 6.33333 1.63636C6.20412 2.27068 5.63685 2.76086 4.978 2.76086C3.59733 2.82123 2.69555 2.99013 1.97524 3.46268C1.48995 3.78104 1.07328 4.19014 0.749024 4.6666C0 5.76721 0 7.29936 0 10.3636C0 13.4279 0 14.9601 0.749024 16.0607C1.07328 16.5371 1.48995 16.9462 1.97524 17.2646C3.09624 18 4.65675 18 7.77778 18ZM14 10C14 12.2091 12.2091 14 10 14C7.79086 14 6 12.2091 6 10C6 7.79086 7.79086 6 10 6C12.2091 6 14 7.79086 14 10ZM16 6.25C15.5858 6.25 15.25 6.58579 15.25 7C15.25 7.41421 15.5858 7.75 16 7.75H17C17.4142 7.75 17.75 7.41421 17.75 7C17.75 6.58579 17.4142 6.25 17 6.25H16Z" fill="#525965"/>
</svg>
