<svg width="32" height="32" viewBox="0 0 32 32" fill="none" xmlns="http://www.w3.org/2000/svg">
<path fill-rule="evenodd" clip-rule="evenodd" d="M4.61931 4.61864C2.66669 6.57126 2.66669 9.71395 2.66669 15.9993C2.66669 22.2847 2.66669 25.4274 4.61931 27.3801C6.57193 29.3327 9.71463 29.3327 16 29.3327C22.2854 29.3327 25.4281 29.3327 27.3807 27.3801C29.3334 25.4274 29.3334 22.2847 29.3334 15.9993C29.3334 9.71395 29.3334 6.57126 27.3807 4.61864C25.4281 2.66602 22.2854 2.66602 16 2.66602C9.71463 2.66602 6.57193 2.66602 4.61931 4.61864ZM17.9841 8.59389C18.5176 8.73683 18.8341 9.28517 18.6912 9.81864L15.2403 22.6976C15.0973 23.2311 14.549 23.5477 14.0155 23.4048C13.4821 23.2618 13.1655 22.7135 13.3084 22.18L16.7594 9.301C16.9023 8.76753 17.4506 8.45095 17.9841 8.59389ZM19.9596 11.2922C20.3501 10.9017 20.9833 10.9017 21.3738 11.2922L21.6516 11.57C22.4987 12.4171 23.2051 13.1235 23.6905 13.7596C24.2028 14.4311 24.5621 15.1405 24.5621 15.9994C24.5621 16.8582 24.2028 17.5676 23.6905 18.2391C23.2051 18.8752 22.4987 19.5816 21.6516 20.4286L21.3738 20.7065C20.9833 21.097 20.3501 21.097 19.9596 20.7065C19.5691 20.3159 19.5691 19.6828 19.9596 19.2922L20.1883 19.0635C21.0972 18.1546 21.7062 17.5426 22.1004 17.0259C22.477 16.5324 22.5621 16.2451 22.5621 15.9994C22.5621 15.7536 22.477 15.4663 22.1004 14.9728C21.7062 14.4561 21.0972 13.8441 20.1883 12.9352L19.9596 12.7065C19.5691 12.3159 19.5691 11.6828 19.9596 11.2922ZM10.6265 11.2922C11.017 10.9017 11.6502 10.9017 12.0407 11.2922C12.4312 11.6828 12.4312 12.3159 12.0407 12.7065L11.8119 12.9352C10.9031 13.8441 10.294 14.4561 9.89986 14.9728C9.52328 15.4663 9.43817 15.7536 9.43817 15.9994C9.43817 16.2451 9.52328 16.5324 9.89986 17.0259C10.294 17.5426 10.9031 18.1546 11.8119 19.0635L12.0407 19.2922C12.4312 19.6828 12.4312 20.3159 12.0407 20.7065C11.6502 21.097 11.017 21.097 10.6265 20.7065L10.3487 20.4287C9.50158 19.5816 8.79519 18.8753 8.30982 18.2391C7.7975 17.5676 7.43817 16.8582 7.43817 15.9994C7.43817 15.1405 7.7975 14.4311 8.30982 13.7596C8.79519 13.1235 9.50159 12.4171 10.3487 11.57L10.6265 11.2922Z" fill="white"/>
</svg>
