<svg width="29" height="29" viewBox="0 0 29 29" fill="none" xmlns="http://www.w3.org/2000/svg">
<path d="M22.3333 9C22.3333 10.4728 21.1394 11.6667 19.6667 11.6667C18.1939 11.6667 17 10.4728 17 9C17 7.52724 18.1939 6.33333 19.6667 6.33333C21.1394 6.33333 22.3333 7.52724 22.3333 9Z" fill="white"/>
<path fill-rule="evenodd" clip-rule="evenodd" d="M14.2568 2.68252e-07H14.4098C17.4877 -1.63339e-05 19.8997 -2.93255e-05 21.7817 0.252996C23.708 0.511982 25.2281 1.05244 26.4212 2.24552C27.6142 3.4386 28.1547 4.95863 28.4137 6.88494C28.6667 8.76692 28.6667 11.179 28.6667 14.2568V14.3745C28.6667 16.9196 28.6667 19.003 28.5285 20.6994C28.3896 22.4041 28.1049 23.8286 27.4678 25.0116C27.1869 25.5335 26.8416 26.0007 26.4212 26.4212C25.2281 27.6142 23.708 28.1547 21.7817 28.4137C19.8997 28.6667 17.4877 28.6667 14.4098 28.6667H14.2568C11.179 28.6667 8.76692 28.6667 6.88494 28.4137C4.95863 28.1547 3.4386 27.6142 2.24552 26.4212C1.18781 25.3634 0.641598 24.047 0.351135 22.4139C0.0657998 20.8097 0.0136032 18.8137 0.00275934 16.3353C2.68221e-07 15.7049 2.68254e-07 15.0381 2.68254e-07 14.3347V14.2568C-1.63339e-05 11.179 -2.93255e-05 8.76692 0.252996 6.88494C0.511982 4.95863 1.05244 3.4386 2.24552 2.24552C3.4386 1.05244 4.95863 0.511982 6.88494 0.252996C8.76692 -2.93255e-05 11.179 -1.63339e-05 14.2568 2.68252e-07ZM7.15144 2.23516C5.4469 2.46433 4.41927 2.90019 3.65973 3.65973C2.90019 4.41927 2.46433 5.4469 2.23516 7.15144C2.00212 8.88474 2 11.1624 2 14.3333C2 14.7207 2 15.0953 2.00046 15.458L3.3353 14.29C4.55033 13.2269 6.38156 13.2879 7.52317 14.4295L13.2428 20.1491C14.1591 21.0654 15.6015 21.1903 16.6617 20.4452L17.0593 20.1658C18.585 19.0936 20.6491 19.2178 22.0351 20.4653L25.8091 23.8618C26.189 23.064 26.4146 22.0157 26.5351 20.537C26.6659 18.931 26.6667 16.9278 26.6667 14.3333C26.6667 11.1624 26.6645 8.88474 26.4315 7.15144C26.2023 5.4469 25.7665 4.41927 25.0069 3.65973C24.2474 2.90019 23.2198 2.46433 21.5152 2.23516C19.7819 2.00212 17.5043 2 14.3333 2C11.1624 2 8.88474 2.00212 7.15144 2.23516Z" fill="white"/>
</svg>
