<svg width="273" height="72" viewBox="0 0 273 72" fill="none" xmlns="http://www.w3.org/2000/svg">
<path d="M67.1993 41.2059C66.4714 45.7016 64.7291 49.9783 62.1013 53.7198V43.745L67.1993 41.2059Z" fill="#F25B38"/>
<path d="M56.5899 58.7758C56.3761 58.7985 56.1606 58.7985 55.9469 58.7758H52.9386L52.3874 58.6398C52.1785 58.6053 51.9715 58.5599 51.7674 58.5038H51.2852L50.2747 58.1864C50.1412 58.1512 50.0107 58.1057 49.8843 58.0504C46.0911 56.6706 42.8188 54.1736 40.5105 50.8973C38.2022 47.6211 36.9692 43.7238 36.9785 39.733V6H36.7719C34.9939 6.00364 33.2193 6.15531 31.4672 6.4534C25.2317 7.52711 19.4838 10.4743 15.0081 14.8927C10.5324 19.3111 7.54692 24.9854 6.45929 31.1411C6.15439 32.8781 6.00073 34.6376 6.00001 36.4005C5.9939 44.4434 9.22136 52.1598 14.9737 57.8555C20.726 63.5511 28.5329 66.7603 36.68 66.7783C41.4623 66.8099 46.1841 65.7222 50.4584 63.6045L51.7904 62.9244C53.6941 61.8675 55.4732 60.6054 57.0951 59.1612L57.4854 58.7985H56.5899V58.7758ZM36.5193 54.6499C38.2861 56.91 40.4293 58.8572 42.8573 60.4081C39.1817 61.3196 35.3446 61.3969 31.6343 60.6341C27.9241 59.8713 24.4373 58.2881 21.4359 56.0037C18.4345 53.7194 15.9967 50.7931 14.3056 47.4449C12.6145 44.0967 11.7141 40.4136 11.6721 36.6725H31.3523C31.2606 37.5614 31.2147 38.4542 31.2146 39.3476C31.2116 44.8885 33.078 50.2726 36.5193 54.6499ZM12.2692 30.9824C13.2984 26.4018 15.6261 22.2047 18.9807 18.881C22.3353 15.5574 26.5783 13.2442 31.2146 12.2116V30.9824H12.2692Z" fill="#F25B38"/>
<path d="M40.9282 42.5674C41.3552 44.571 42.1743 46.473 43.3394 48.1669L43.5461 48.4616L51.2161 44.6303V54.1971H51.4917C52.3001 54.4675 53.1296 54.6722 53.9718 54.8092C54.8375 54.9465 55.7129 55.0147 56.5897 55.0132H57.2786V41.5925L67.5665 36.4691V36.2198C67.5945 34.0268 67.3789 31.8374 66.9235 29.6908L66.8087 29.1694L41.043 42.0006H40.9282V42.5674Z" fill="#F25B38"/>
<path d="M46.8074 28.1038L50.1372 26.4489L54.6152 30.8242L59.8969 28.1492L55.4419 23.7739L62.6296 20.192L62.5148 20.0106C62.0785 19.3532 61.6881 18.7865 61.2977 18.265C60.9073 17.7436 60.2184 16.9048 59.6673 16.2928C59.0446 15.5799 58.3854 14.8989 57.6924 14.2524V14.1391H57.5546C53.0675 9.99373 47.4164 7.28338 41.3419 6.36328H41.1123V37.6706L46.7844 34.7915L46.8074 28.1038ZM54.3166 18.8318L46.8074 22.663V13.731C47.8726 14.1993 48.9011 14.7449 49.8846 15.3633C50.4357 15.7033 50.9639 16.0661 51.4461 16.4061C52.4672 17.1376 53.4271 17.9487 54.3166 18.8318Z" fill="#F25B38"/>
<path d="M65.4769 25.338L63.8924 26.1542L62.3308 24.6806L64.6272 23.5244C64.9717 24.1365 65.2472 24.7486 65.4769 25.338Z" fill="#F25B38"/>
<path d="M202 50.163C199.171 50.163 196.405 49.3347 194.052 47.7828C191.699 46.2309 189.866 44.0251 188.783 41.4444C187.7 38.8637 187.417 36.0239 187.969 33.2843C188.521 30.5446 189.883 28.028 191.884 26.0528C193.885 24.0776 196.434 22.7325 199.209 22.1876C201.985 21.6426 204.861 21.9223 207.475 22.9913C210.09 24.0602 212.324 25.8705 213.896 28.1931C215.468 30.5156 216.307 33.2463 216.307 36.0396C216.295 39.7817 214.784 43.3671 212.103 46.0132C209.423 48.6592 205.791 50.1511 202 50.163ZM202 26.6542C200.12 26.6542 198.282 27.2047 196.719 28.2359C195.155 29.2672 193.937 30.733 193.217 32.448C192.497 34.1629 192.309 36.05 192.676 37.8706C193.043 39.6912 193.948 41.3635 195.278 42.6761C196.608 43.9887 198.302 44.8825 200.146 45.2447C201.99 45.6068 203.901 45.4209 205.639 44.7106C207.376 44.0002 208.861 42.7973 209.905 41.2539C210.95 39.7104 211.508 37.8959 211.508 36.0396C211.508 33.5505 210.506 31.1632 208.723 29.4031C206.94 27.643 204.522 26.6542 202 26.6542Z" fill="#2F333A"/>
<path d="M107.894 22.7099C107.068 22.6637 106.24 22.6637 105.414 22.7099C99.966 23.2229 94.8049 25.3575 90.6137 28.831C86.4226 32.3045 83.3993 36.953 81.9443 42.1608C81.2698 44.5058 80.9297 46.9321 80.9339 49.3698H85.8941C85.8931 46.915 86.3123 44.4777 87.1342 42.1608H105.505V49.4152H110.466V22.7099C109.609 22.6613 108.75 22.6613 107.894 22.7099ZM105.414 37.3094H89.4995C91.286 34.6666 93.636 32.4412 96.3849 30.7887C99.1337 29.1362 102.215 28.0966 105.414 27.7426V37.3094Z" fill="#2F333A"/>
<path d="M128.791 37.9211L133.223 35.6541L137.816 33.3871C136.784 32.033 135.632 30.7735 134.371 29.6239C130.005 25.6448 124.423 23.2124 118.503 22.7095C117.677 22.6633 116.849 22.6633 116.023 22.7095C115.197 22.6643 114.369 22.6643 113.543 22.7095V49.3241H118.503V43.1125L124.152 40.3015L133.338 49.4828H133.521L137.977 47.2158L128.791 37.9211ZM120.455 36.5836L118.503 37.5811V27.6743C122.523 28.1563 126.329 29.7254 129.503 32.2083L125.117 34.4753L120.455 36.5836Z" fill="#2F333A"/>
<path d="M186.867 40.211C186.386 41.7237 185.657 43.1481 184.708 44.4276C183.198 46.4333 181.174 48.0066 178.845 48.9864C176.516 49.9662 173.965 50.3172 171.453 50.0035C168.941 49.6898 166.559 48.7227 164.55 47.2011C162.542 45.6796 160.979 43.6584 160.022 41.3445H165.418C166.236 42.5228 167.315 43.5014 168.573 44.2058C169.832 44.9101 171.236 45.3217 172.68 45.4092C174.124 45.4966 175.569 45.2576 176.905 44.7104C178.242 44.1632 179.434 43.3221 180.391 42.2513L178.577 41.3445L163.903 34.0447L159.54 31.7777C159.622 31.4676 159.73 31.1644 159.861 30.8709C160.312 29.6875 160.93 28.5731 161.698 27.5611C163.222 25.5279 165.27 23.9358 167.63 22.9512C169.99 21.9666 172.574 21.6256 175.113 21.9638C177.652 22.302 180.052 23.307 182.063 24.8738C184.074 26.4406 185.622 28.5118 186.545 30.8709H181.195C180.402 29.6492 179.333 28.626 178.072 27.8819C176.81 27.1379 175.391 26.6933 173.926 26.5834C172.461 26.4735 170.99 26.7012 169.629 27.2486C168.268 27.7959 167.055 28.6479 166.084 29.7374L168.381 30.8709L182.55 37.9213L186.867 40.211Z" fill="#2F333A"/>
<path d="M159.104 22.6645H138.298V27.5613H146.221V49.4152H151.181V27.5613H159.104V22.6645Z" fill="#2F333A"/>
<path d="M244.989 22.6645V49.4152H239.684L224.229 31.3698V49.4152H219.636V22.6645H222.806L240.396 43.2036V22.6645H244.989Z" fill="#2F333A"/>
<path d="M272.977 22.6617L262.291 36.0473L261.798 36.6623V49.4088H257.166V36.6469L256.673 36.0473L246.008 22.6648H251.626L257.166 29.8048L259.482 32.6339L261.798 29.8202L267.359 22.6617H272.977Z" fill="#2F333A"/>
</svg>
