<svg width="32" height="32" viewBox="0 0 32 32" fill="none" xmlns="http://www.w3.org/2000/svg">
<path fill-rule="evenodd" clip-rule="evenodd" d="M16 29.3327C23.3638 29.3327 29.3334 23.3631 29.3334 15.9993C29.3334 8.63555 23.3638 2.66602 16 2.66602C8.63622 2.66602 2.66669 8.63555 2.66669 15.9993C2.66669 23.3631 8.63622 29.3327 16 29.3327ZM17 11.9993C17 11.4471 16.5523 10.9993 16 10.9993C15.4477 10.9993 15 11.4471 15 11.9993L15 14.9994H12C11.4477 14.9994 11 15.4471 11 15.9994C11 16.5517 11.4477 16.9994 12 16.9994H15V19.9993C15 20.5516 15.4477 20.9993 16 20.9993C16.5523 20.9993 17 20.5516 17 19.9993L17 16.9994H20C20.5523 16.9994 21 16.5517 21 15.9994C21 15.4471 20.5523 14.9994 20 14.9994H17V11.9993Z" fill="#F25B38"/>
</svg>
