<svg width="18" height="20" viewBox="0 0 18 20" fill="none" xmlns="http://www.w3.org/2000/svg">
<path d="M0 4.16667C0 3.70644 0.34538 3.33335 0.771429 3.33335L3.43567 3.3329C3.96502 3.31841 4.43202 2.95482 4.61214 2.41691C4.61688 2.40277 4.62232 2.38532 4.64185 2.32203L4.75665 1.94993C4.8269 1.72179 4.8881 1.52303 4.97375 1.34536C5.31209 0.643491 5.93808 0.156103 6.66147 0.0313196C6.84457 -0.000265904 7.03848 -0.000132328 7.26106 2.10536e-05H10.7391C10.9617 -0.000132328 11.1556 -0.000265904 11.3387 0.0313196C12.0621 0.156103 12.6881 0.643491 13.0264 1.34536C13.1121 1.52303 13.1733 1.72179 13.2435 1.94993L13.3583 2.32203C13.3779 2.38532 13.3833 2.40277 13.388 2.41691C13.5682 2.95482 14.1278 3.31886 14.6571 3.33335H17.2286C17.6546 3.33335 18 3.70644 18 4.16667C18 4.62691 17.6546 5 17.2286 5H0.771429C0.34538 5 0 4.62691 0 4.16667Z" fill="white"/>
<path d="M8.85677 19.9998H9.6437C12.3512 19.9998 13.7049 19.9998 14.5851 19.1366C15.4653 18.2734 15.5554 16.8575 15.7355 14.0256L15.995 9.94504C16.0927 8.40848 16.1416 7.6402 15.7 7.15335C15.2584 6.6665 14.5128 6.6665 13.0214 6.6665H5.47905C3.98771 6.6665 3.24204 6.6665 2.80047 7.15335C2.35891 7.6402 2.40777 8.40848 2.50549 9.94504L2.765 14.0256C2.9451 16.8575 3.03515 18.2734 3.91534 19.1366C4.79553 19.9998 6.14927 19.9998 8.85677 19.9998Z" fill="white"/>
</svg>
