<svg width="32" height="32" viewBox="0 0 32 32" fill="none" xmlns="http://www.w3.org/2000/svg">
<path d="M32 16.1551L30.4044 17.4066C30.3451 17.4524 30.2829 17.4944 30.2181 17.5325L29.0385 18.1626C27.1646 19.0184 25.0654 19.2894 23.0276 18.9385C20.9898 18.5876 19.1127 17.6319 17.6528 16.2021L5.0526 3.91322L5.91737 3.26536C12.3386 -1.55953 21.5125 -0.978368 27.2518 4.61687C28.7513 6.07127 29.9423 7.79947 30.7566 9.70275C31.571 11.606 31.9928 13.6471 31.9979 15.7094L32 16.1551ZM29.1956 15.9435L29.2779 15.8877L30.0666 15.2697C29.9419 11.7565 28.4501 8.42132 25.8943 5.94185C21.0979 1.26463 13.5802 0.565734 7.98751 4.12826L19.0152 14.8805C20.1895 16.032 21.6981 16.8041 23.3371 17.0925C24.976 17.381 26.6663 17.1718 28.1794 16.4933L29.1956 15.9435Z" fill="#02272F"/>
<path d="M27.4675 27.3083C27.11 27.6673 26.7263 28.016 26.2898 28.373C26.0446 28.5762 25.7918 28.7717 25.5382 28.954C22.814 30.948 19.5265 32.0148 16.1559 31.9985C15.8594 32.0048 15.5449 31.9902 15.2395 31.9686C14.6596 31.9324 14.0653 31.8684 13.4813 31.7759C13.1973 31.7362 12.9077 31.6722 12.6161 31.6088C11.4851 31.3601 10.3848 30.9867 9.33533 30.4954C8.91208 30.2908 8.4999 30.0779 8.09535 29.8413C6.86894 29.1363 5.74143 28.2705 4.74255 27.2665C4.56036 27.0835 4.38718 26.9081 4.22854 26.7189C4.11231 26.6036 4.00313 26.4813 3.90157 26.3528C3.8323 26.2784 3.77065 26.1997 3.71731 26.1294C3.60439 25.9903 3.47485 25.8344 3.34462 25.6597L3.11741 25.3466C3.03497 25.2324 2.94977 25.1135 2.8701 24.9875L2.82438 24.9179C2.74887 24.8024 2.67475 24.691 2.59717 24.5825L2.59024 24.5734V24.5693L2.40805 24.2742C2.28267 24.0654 2.1656 23.8713 2.05615 23.6667C1.97097 23.5304 1.89573 23.3881 1.83101 23.2408C1.74719 23.0954 1.63358 22.8727 1.53383 22.6514C1.40706 22.3911 1.28098 22.0863 1.16183 21.7746C0.164229 19.3007 -0.199527 16.6149 0.103882 13.9632C0.407292 11.3115 1.36817 8.77864 2.8985 6.59664C2.98717 6.47625 3.07238 6.36213 3.15689 6.26053C3.24002 6.14153 3.3273 6.02741 3.41597 5.91258L4.07822 5.05247L4.86516 5.79428L16.6256 17.6083C18.3343 19.3354 20.5286 20.4951 22.9132 20.9314C25.2978 21.3677 27.7583 21.0597 29.9634 20.0488L32 19.1114L31.2602 21.2367C30.76 22.6857 30.0545 24.0546 29.1654 25.3013L29.1079 25.3786C28.9693 25.572 28.8356 25.7488 28.7026 25.9109C28.5641 26.1023 28.3736 26.3208 28.1845 26.5372C27.9309 26.8267 27.7037 27.0689 27.4675 27.3083ZM4.30613 23.6945C4.34284 23.7488 4.3754 23.8038 4.41696 23.8595L4.47238 23.9451C4.54166 24.0543 4.60331 24.1392 4.66635 24.2234L4.88248 24.5226C4.98708 24.6618 5.0993 24.801 5.21776 24.9443L5.37431 25.1302C5.45484 25.2335 5.54184 25.3316 5.63478 25.4238C5.8142 25.6326 5.95135 25.7718 6.09406 25.9109C6.97353 26.7969 7.96692 27.5607 9.04785 28.1823C9.415 28.3952 9.78491 28.5887 10.1562 28.7668C11.0665 29.1921 12.0206 29.5153 13.0012 29.7306C13.2728 29.7912 13.5159 29.8462 13.7632 29.8817C14.3017 29.9661 14.8361 30.0243 15.3662 30.0563C15.6239 30.0758 15.8775 30.0883 16.1365 30.0828C19.1135 30.1012 22.0181 29.161 24.4243 27.4001C24.6481 27.2387 24.8663 27.0689 25.0796 26.8935C25.6704 26.4088 26.221 25.8768 26.7263 25.3027C26.9015 25.0995 27.0609 24.9165 27.2015 24.7279C27.34 24.5581 27.4495 24.4092 27.5541 24.268L27.6157 24.1803C27.9841 23.6667 28.3161 23.1277 28.6091 22.5672C26.2674 23.1991 23.8011 23.1986 21.4597 22.5657C19.1183 21.9329 16.9847 20.6902 15.2748 18.9632L4.29781 7.93204C1.70078 11.7942 1.18469 16.6932 2.93868 21.0773C3.04259 21.3508 3.1465 21.6013 3.26149 21.8428C3.35155 22.0425 3.44022 22.2144 3.52819 22.3731C3.57779 22.4834 3.63376 22.5908 3.69583 22.6946C3.84754 22.9729 3.97292 23.1817 4.10108 23.3849L4.30266 23.5874L4.30613 23.6945Z" fill="#F25B38"/>
</svg>
