<svg width="104" height="104" viewBox="0 0 104 104" fill="none" xmlns="http://www.w3.org/2000/svg">
<path fill-rule="evenodd" clip-rule="evenodd" d="M41.5674 13.8672C40.5121 14.7665 39.9844 15.2162 39.4209 15.5939C38.1291 16.4597 36.6784 17.0606 35.1528 17.3618C34.4872 17.4932 33.7961 17.5484 32.414 17.6587C28.9413 17.9358 27.205 18.0743 25.7564 18.586C22.4059 19.7694 19.7704 22.4049 18.587 25.7554C18.0753 27.204 17.9368 28.9404 17.6596 32.413C17.5493 33.7952 17.4942 34.4862 17.3628 35.1518C17.0616 36.6774 16.4607 38.1282 15.5949 39.4199C15.2172 39.9835 14.7675 40.5111 13.8682 41.5664C11.6086 44.2179 10.4788 45.5437 9.81626 46.9298C8.2839 50.1358 8.2839 53.8629 9.81626 57.0689C10.4788 58.455 11.6086 59.7808 13.8682 62.4323C14.7674 63.4875 15.2172 64.0152 15.5949 64.5787C16.4607 65.8705 17.0616 67.3213 17.3628 68.8469C17.4942 69.5125 17.5493 70.2035 17.6596 71.5857C17.9368 75.0583 18.0753 76.7947 18.587 78.2433C19.7704 81.5938 22.4059 84.2292 25.7564 85.4127C27.205 85.9244 28.9413 86.0629 32.414 86.34C33.7961 86.4503 34.4872 86.5055 35.1528 86.6369C36.6784 86.9381 38.1291 87.539 39.4209 88.4048C39.9845 88.7825 40.5121 89.2322 41.5674 90.1315C44.2189 92.3911 45.5447 93.5209 46.9308 94.1834C50.1368 95.7158 53.8639 95.7158 57.0699 94.1834C58.456 93.5209 59.7817 92.3911 62.4332 90.1315C63.4885 89.2322 64.0162 88.7825 64.5797 88.4048C65.8715 87.539 67.3222 86.9381 68.8479 86.6369C69.5134 86.5055 70.2045 86.4503 71.5866 86.34C75.0593 86.0629 76.7956 85.9244 78.2443 85.4127C81.5948 84.2292 84.2302 81.5938 85.4137 78.2433C85.9253 76.7947 86.0639 75.0583 86.341 71.5857C86.4513 70.2035 86.5065 69.5125 86.6379 68.8469C86.9391 67.3213 87.54 65.8705 88.4058 64.5788C88.7835 64.0152 89.2332 63.4876 90.1325 62.4323C92.3921 59.7808 93.5219 58.455 94.1844 57.0689C95.7167 53.8629 95.7167 50.1358 94.1844 46.9298C93.5219 45.5437 92.3921 44.2179 90.1325 41.5664C89.2332 40.5111 88.7835 39.9835 88.4058 39.4199C87.54 38.1282 86.9391 36.6774 86.6379 35.1518C86.5065 34.4862 86.4513 33.7952 86.341 32.413C86.0639 28.9404 85.9253 27.204 85.4137 25.7554C84.2302 22.4049 81.5948 19.7694 78.2443 18.586C76.7956 18.0743 75.0593 17.9358 71.5866 17.6587C70.2045 17.5484 69.5134 17.4932 68.8479 17.3618C67.3222 17.0606 65.8715 16.4597 64.5797 15.5939C64.0162 15.2162 63.4885 14.7665 62.4332 13.8672C59.7817 11.6076 58.456 10.4778 57.0699 9.81528C53.8639 8.28293 50.1368 8.28293 46.9308 9.81528C45.5447 10.4778 44.2189 11.6076 41.5674 13.8672ZM70.9521 42.7396C72.3294 41.3623 72.3294 39.1293 70.9521 37.7521C69.5748 36.3748 67.3418 36.3748 65.9646 37.7521L44.9468 58.7698L38.036 51.859C36.6587 50.4817 34.4257 50.4817 33.0484 51.859C31.6712 53.2362 31.6712 55.4692 33.0484 56.8465L42.453 66.2511C43.8303 67.6284 46.0633 67.6284 47.4406 66.2511L70.9521 42.7396Z" fill="#4CAF50"/>
</svg>
