<svg width="19" height="19" viewBox="0 0 19 19" fill="none" xmlns="http://www.w3.org/2000/svg">
<path fill-rule="evenodd" clip-rule="evenodd" d="M0.038691 0.513033C0.169677 0.120075 0.594417 -0.0922948 0.987374 0.038691L1.29176 0.140153C1.91813 0.348919 2.44746 0.525342 2.8637 0.718976C3.30613 0.9248 3.69002 1.17989 3.98112 1.58377C4.27222 1.98764 4.39282 2.4325 4.44817 2.91732C4.47644 3.16491 4.48936 3.44252 4.49526 3.7502H15.2008C17.2558 3.7502 18.2833 3.7502 18.7279 4.42447C19.1725 5.09873 18.7677 6.04314 17.9582 7.93196L17.5297 8.93196C17.1517 9.8138 16.9628 10.2547 16.5871 10.5025C16.2114 10.7502 15.7317 10.7502 14.7722 10.7502H4.6534C4.75839 11.2901 4.92403 11.606 5.15921 11.8412C5.43598 12.118 5.82455 12.2984 6.55832 12.3971C7.31367 12.4986 8.31479 12.5002 9.7502 12.5002H16.7502C17.1644 12.5002 17.5002 12.836 17.5002 13.2502C17.5002 13.6644 17.1644 14.0002 16.7502 14.0002H9.69532C8.32774 14.0002 7.22542 14.0002 6.35845 13.8837C5.45834 13.7627 4.70047 13.5038 4.09855 12.9019C3.49664 12.2999 3.23774 11.5421 3.11673 10.642C3.00017 9.77499 3.00018 8.67267 3.0002 7.30508L3.0002 4.63324C3.0002 3.92024 2.99907 3.44848 2.95785 3.08747C2.91883 2.74562 2.85068 2.58074 2.76426 2.46083C2.67784 2.34093 2.54296 2.22414 2.231 2.07901C1.90155 1.92575 1.45435 1.77549 0.777944 1.55002L0.513033 1.46172C0.120075 1.33073 -0.0922948 0.90599 0.038691 0.513033ZM6.7502 6.0002C6.33599 6.0002 6.0002 6.33599 6.0002 6.7502C6.0002 7.16442 6.33599 7.5002 6.7502 7.5002H9.7502C10.1644 7.5002 10.5002 7.16442 10.5002 6.7502C10.5002 6.33599 10.1644 6.0002 9.7502 6.0002H6.7502Z" fill="#525965"/>
<path d="M6.25 15.7502C7.07843 15.7502 7.75 16.4218 7.75 17.2502C7.75 18.0787 7.07843 18.7502 6.25 18.7502C5.42157 18.7502 4.75 18.0787 4.75 17.2502C4.75 16.4218 5.42157 15.7502 6.25 15.7502Z" fill="#525965"/>
<path d="M15.25 15.7503C16.0784 15.7503 16.75 16.4219 16.75 17.2503C16.75 18.0787 16.0784 18.7503 15.25 18.7503C14.4216 18.7503 13.75 18.0787 13.75 17.2503C13.75 16.4219 14.4216 15.7503 15.25 15.7503Z" fill="#525965"/>
</svg>
