<svg width="19" height="18" viewBox="0 0 19 18" fill="none" xmlns="http://www.w3.org/2000/svg">
<path d="M7.31443 5.73049L7.82886 7.59256C8.31386 9.34813 8.55637 10.2259 9.26936 10.6252C9.98234 11.0244 10.8874 10.7892 12.6974 10.3188L14.6173 9.81987C16.4274 9.34947 17.3324 9.11426 17.7441 8.42274C18.1557 7.73122 17.9132 6.85344 17.4282 5.09788L16.9138 3.2358C16.4288 1.48023 16.1863 0.602444 15.4733 0.203194C14.7603 -0.196056 13.8552 0.0391459 12.0452 0.50955L10.1253 1.00849C8.31524 1.47889 7.41021 1.71409 6.99856 2.40562C6.58692 3.09714 6.82943 3.97493 7.31443 5.73049Z" fill="#525965"/>
<path d="M0.0274902 2.24694C0.13823 1.84781 0.551566 1.61402 0.950702 1.72476L2.6544 2.19744C3.57129 2.45183 4.2969 3.15866 4.55003 4.07489L6.70106 11.8609L6.85935 12.4075C7.49249 12.6438 8.0363 13.0866 8.38143 13.6747L8.69141 13.579L17.5615 11.2739C17.9624 11.1697 18.3719 11.4102 18.4761 11.8111C18.5803 12.212 18.3397 12.6214 17.9388 12.7256L9.10151 15.0223L8.77282 15.1238C8.76607 16.3947 7.88924 17.5555 6.56236 17.9003C4.97189 18.3136 3.33709 17.3982 2.91092 15.8556C2.48476 14.313 3.42861 12.7274 5.01908 12.3141C5.0979 12.2936 5.17682 12.2764 5.2557 12.2623L3.10419 4.47433C2.99592 4.08242 2.67897 3.76092 2.25338 3.64284L0.549679 3.17016C0.150542 3.05942 -0.0832493 2.64608 0.0274902 2.24694Z" fill="#525965"/>
</svg>
