<svg width="136" height="20" viewBox="0 0 136 20" fill="none" xmlns="http://www.w3.org/2000/svg">
<path d="M85.7362 20C83.7324 20 81.7736 19.4151 80.1074 18.3194C78.4413 17.2237 77.1427 15.6663 76.3759 13.8441C75.6091 12.0219 75.4084 10.0169 75.7993 8.08252C76.1903 6.14814 77.1552 4.37129 78.5721 2.97668C79.9891 1.58207 81.7943 0.632324 83.7597 0.247551C85.725 -0.137222 87.7621 0.0602575 89.6134 0.815017C91.4647 1.56978 93.0471 2.84792 94.1603 4.48781C95.2736 6.1277 95.8678 8.05569 95.8678 10.028C95.8592 12.6701 94.7891 15.2016 92.8909 17.0699C90.9927 18.9382 88.4207 19.9916 85.7362 20ZM85.7362 3.40129C84.4046 3.40129 83.103 3.78994 81.9958 4.51809C80.8886 5.24624 80.0256 6.28118 79.516 7.49205C79.0065 8.70292 78.8731 10.0353 79.1329 11.3208C79.3927 12.6062 80.0339 13.787 80.9755 14.7137C81.9171 15.6405 83.1167 16.2716 84.4228 16.5273C85.7288 16.783 87.0825 16.6518 88.3127 16.1502C89.543 15.6487 90.5945 14.7993 91.3343 13.7096C92.0741 12.6198 92.4689 11.3386 92.4689 10.028C92.4689 8.27047 91.7596 6.58494 90.497 5.3422C89.2344 4.09946 87.5219 3.40129 85.7362 3.40129Z" fill="#F25B38"/>
<path d="M19.0923 0.616349C18.5073 0.583706 17.9209 0.583706 17.3359 0.616349C13.4781 0.978539 9.8231 2.48572 6.85505 4.93824C3.88701 7.39076 1.74599 10.6729 0.715577 14.3499C0.237903 16.0056 -0.00292974 17.7188 2.68948e-05 19.44H3.51274C3.51201 17.7067 3.80891 15.9858 4.39091 14.3499H17.401V19.472H20.9137V0.616349C20.307 0.582034 19.6989 0.582034 19.0923 0.616349ZM17.3359 10.9245H6.06596C7.33116 9.05856 8.99532 7.48724 10.942 6.32048C12.8887 5.15372 15.0709 4.4197 17.3359 4.16978V10.9245Z" fill="#F25B38"/>
<path d="M33.8911 11.3564L37.0298 9.75578L40.2823 8.15513C39.552 7.19907 38.7355 6.30978 37.8429 5.49806C34.7512 2.6886 30.7979 0.97112 26.6055 0.616086C26.0205 0.583443 25.4341 0.583443 24.8491 0.616086C24.2641 0.58418 23.6778 0.58418 23.0928 0.616086V19.4077H26.6055V15.0219L30.6061 13.0371L37.1111 19.5197H37.2412L40.3961 17.9191L33.8911 11.3564ZM27.9878 10.412L26.6055 11.1163V4.1215C29.4521 4.46188 32.1479 5.56973 34.3952 7.3228L31.2891 8.92344L27.9878 10.412Z" fill="#F25B38"/>
<path d="M75.019 12.9732C74.6784 14.0413 74.1619 15.047 73.4903 15.9504C72.4205 17.3666 70.9875 18.4774 69.3381 19.1692C67.6886 19.861 65.882 20.1088 64.1032 19.8873C62.3245 19.6659 60.6375 18.983 59.215 17.9087C57.7926 16.8344 56.6858 15.4073 56.008 13.7735H59.8297C60.4086 14.6055 61.1727 15.2964 62.0639 15.7938C62.9551 16.2911 63.9498 16.5817 64.9724 16.6435C65.9949 16.7052 67.0183 16.5365 67.9646 16.1501C68.9109 15.7637 69.7551 15.1699 70.4329 14.4138L69.1482 13.7735L58.7564 8.61945L55.6665 7.01881C55.7253 6.79984 55.8014 6.58577 55.8942 6.37855C56.2135 5.54296 56.6515 4.75615 57.1952 4.0416C58.2742 2.60602 59.725 1.48193 61.3961 0.786741C63.0672 0.0915539 64.8973 -0.149221 66.6952 0.0895658C68.4932 0.328353 70.193 1.03794 71.6172 2.14421C73.0413 3.25048 74.1375 4.71284 74.7913 6.37855H71.0021C70.441 5.51595 69.6839 4.79348 68.7906 4.26812C67.8973 3.74277 66.8922 3.42891 65.8546 3.35131C64.8169 3.2737 63.7752 3.43447 62.8114 3.82093C61.8477 4.2074 60.9884 4.80898 60.3013 5.57822L61.9276 6.37855L71.9616 11.3566L75.019 12.9732Z" fill="#F25B38"/>
<path d="M55.3578 0.584321H40.6239V4.04172H46.2345V19.472H49.7472V4.04172H55.3578V0.584321Z" fill="#F25B38"/>
<path d="M116.179 0.584321V19.472H112.423L101.478 6.7308V19.472H98.2256V0.584321H100.47L112.927 15.0862V0.584321H116.179Z" fill="#F25B38"/>
<path d="M136 0.582338L128.433 10.0334L128.083 10.4676V19.4675H124.803V10.4567L124.454 10.0334L116.901 0.584501H120.88L124.803 5.62578L126.443 7.62331L128.083 5.63664L132.021 0.582338H136Z" fill="#F25B38"/>
</svg>
