<svg width="20" height="20" viewBox="0 0 20 20" fill="none" xmlns="http://www.w3.org/2000/svg">
<path fill-rule="evenodd" clip-rule="evenodd" d="M0 10C0 5.28595 0 2.92893 1.46447 1.46447C2.92893 0 5.28595 0 10 0C14.714 0 17.0711 0 18.5355 1.46447C20 2.92893 20 5.28595 20 10C20 14.714 20 17.0711 18.5355 18.5355C17.0711 20 14.714 20 10 20C5.28595 20 2.92893 20 1.46447 18.5355C0 17.0711 0 14.714 0 10ZM10 15.75C10.4142 15.75 10.75 15.4142 10.75 15V9.81066L12.4697 11.5303C12.7626 11.8232 13.2374 11.8232 13.5303 11.5303C13.8232 11.2374 13.8232 10.7626 13.5303 10.4697L10.5303 7.46967C10.3897 7.32902 10.1989 7.25 10 7.25C9.80109 7.25 9.61032 7.32902 9.46967 7.46967L6.46967 10.4697C6.17678 10.7626 6.17678 11.2374 6.46967 11.5303C6.76256 11.8232 7.23744 11.8232 7.53033 11.5303L9.25 9.81066V15C9.25 15.4142 9.58579 15.75 10 15.75ZM6 5.75C5.58579 5.75 5.25 5.41421 5.25 5C5.25 4.58579 5.58579 4.25 6 4.25H14C14.4142 4.25 14.75 4.58579 14.75 5C14.75 5.41421 14.4142 5.75 14 5.75H6Z" fill="#525965"/>
</svg>
