<svg width="224" height="150" viewBox="0 0 224 150" fill="none" xmlns="http://www.w3.org/2000/svg">
<g filter="url(#filter0_d_6141_32532)">
<path d="M258.001 133.715L245.722 143.613C245.267 144.005 244.774 144.351 244.252 144.647L235.208 149.669C222.84 155.563 209.154 158.109 195.505 157.056C177.411 155.375 160.475 147.378 147.641 134.454L50.7368 36.7351L57.4275 31.5648C75.8704 17.4954 97.8414 8.84988 120.89 6.59255C143.938 4.33522 167.158 8.55487 187.958 18.7808C208.759 29.0067 226.323 44.8368 238.691 64.5054C251.058 84.1739 257.744 106.907 258.001 130.17V133.715ZM236.385 132.017L237.046 131.647L243.149 126.699C242.423 107.176 236.551 88.1978 226.132 71.702C215.714 55.2061 201.124 41.7844 183.852 32.8082C166.58 23.832 147.245 19.623 127.823 20.6114C108.402 21.5998 89.5895 27.7501 73.3087 38.4339L158.082 123.892C167.101 133.046 178.71 139.185 191.327 141.471C203.944 143.758 216.957 142.081 228.591 136.67L236.385 132.017Z" fill="#F25B38"/>
<path d="M220.825 219.721C218.034 222.523 215.096 225.178 211.717 227.98C209.807 229.528 207.824 231.077 205.914 232.477C184.812 247.883 159.362 256.124 133.27 255.999C130.993 255.999 128.495 255.999 125.924 255.999C121.444 255.999 116.816 255.188 112.336 254.524C110.132 254.524 107.855 253.713 105.652 253.197C96.8921 251.294 88.3688 248.426 80.2371 244.644C76.9317 243.022 73.773 241.399 70.6146 239.556C61.1272 234.108 52.4072 227.413 44.6858 219.648C43.2873 218.295 41.9633 216.868 40.7195 215.371C39.7946 214.502 38.9352 213.566 38.1486 212.569C37.6391 212.016 37.1725 211.424 36.753 210.799C35.8716 209.767 34.8431 208.514 33.8883 207.186L32.1255 204.753C31.4644 203.868 30.8033 202.984 30.2156 202.025L29.8485 201.435L28.0857 198.854L26.6901 196.569C25.702 195.045 24.7948 193.47 23.9723 191.85C23.2885 190.798 22.6984 189.688 22.2093 188.532C21.5483 187.426 20.667 185.73 19.859 184.034C19.051 182.338 17.9491 179.61 16.9943 177.25C9.27164 158.105 6.45561 137.321 8.80391 116.801C11.1522 96.2806 18.5897 76.6793 30.436 59.7907L32.4929 57.21C33.0805 56.2514 33.8149 55.3666 34.476 54.4818L39.6176 47.8457L45.7142 53.597L136.869 144.512C150.098 157.877 167.089 166.852 185.554 170.227C204.019 173.602 223.071 171.215 240.143 163.388L255.862 156.015L250.133 172.457C246.28 183.654 240.838 194.233 233.973 203.868L233.459 204.974L230.301 209.03C229.199 210.505 227.73 212.2 226.261 213.896C224.792 215.592 222.662 217.731 220.825 219.721ZM41.5274 191.776C41.7706 192.21 42.0405 192.629 42.3355 193.029L42.7762 193.693C43.2191 194.455 43.7357 195.171 44.3186 195.831L45.9346 198.191L48.5788 201.435L49.7541 202.91C50.3809 203.7 51.0686 204.44 51.8107 205.122C53.2063 206.744 54.2347 207.85 55.3365 208.956C62.1505 215.787 69.8311 221.688 78.1802 226.505C81.0448 228.127 83.9096 229.602 86.7742 231.003C93.83 234.259 101.219 236.732 108.81 238.376C110.94 238.892 112.776 239.261 114.76 239.556C118.847 240.213 122.966 240.656 127.1 240.883C129.106 240.994 131.117 240.994 133.123 240.883C156.152 241.023 178.623 233.763 197.247 220.164C199.01 218.935 200.699 217.608 202.315 216.182C206.904 212.462 211.178 208.368 215.096 203.942C216.418 202.32 217.667 200.919 218.769 199.444C219.87 197.97 220.678 197.011 221.486 195.905L221.927 195.241C224.786 191.3 227.363 187.161 229.64 182.854C217.554 186.075 205.004 187.172 192.546 186.098C167.555 183.781 144.163 172.745 126.439 154.909L41.4539 69.6712C31.5243 84.4524 25.3722 101.46 23.5404 119.193C21.7085 136.926 24.2532 154.839 30.9502 171.351C31.6353 173.377 32.47 175.349 33.4476 177.25C34.0442 178.669 34.7312 180.049 35.5042 181.379C35.8752 182.237 36.2921 183.074 36.753 183.886C37.9283 186.025 38.9565 187.647 39.9114 189.195L41.4539 190.744L41.5274 191.776Z" fill="#02272F"/>
</g>
<defs>
<filter id="filter0_d_6141_32532" x="0" y="0" width="266.001" height="266" filterUnits="userSpaceOnUse" color-interpolation-filters="sRGB">
<feFlood flood-opacity="0" result="BackgroundImageFix"/>
<feColorMatrix in="SourceAlpha" type="matrix" values="0 0 0 0 0 0 0 0 0 0 0 0 0 0 0 0 0 0 127 0" result="hardAlpha"/>
<feOffset dy="2"/>
<feGaussianBlur stdDeviation="4"/>
<feComposite in2="hardAlpha" operator="out"/>
<feColorMatrix type="matrix" values="0 0 0 0 0 0 0 0 0 0 0 0 0 0 0 0 0 0 0.25 0"/>
<feBlend mode="normal" in2="BackgroundImageFix" result="effect1_dropShadow_6141_32532"/>
<feBlend mode="normal" in="SourceGraphic" in2="effect1_dropShadow_6141_32532" result="shape"/>
</filter>
</defs>
</svg>
