<svg width="224" height="154" viewBox="0 0 224 154" fill="none" xmlns="http://www.w3.org/2000/svg">
<g filter="url(#filter0_d_6141_32533)">
<path d="M-33.9988 16.2846L-21.7202 6.38713C-21.2648 5.99507 -20.7724 5.64872 -20.2499 5.35307L-11.2063 0.330486C1.16189 -5.5629 14.8478 -8.10898 28.4965 -7.05568C46.5909 -5.37506 63.527 2.62222 76.3607 15.546L173.265 113.265L166.574 118.435C148.132 132.505 126.161 141.15 103.112 143.407C80.0636 145.665 56.8441 141.445 36.0435 131.219C15.2429 120.993 -2.32101 105.163 -14.6887 85.4946C-27.0564 65.8261 -33.7416 43.0926 -33.9988 19.8299L-33.9988 16.2846ZM-12.3828 17.9834L-13.0444 18.3527L-19.1471 23.3014C-18.4209 42.8236 -12.5486 61.8022 -2.1305 78.298C8.28757 94.7939 22.8781 108.216 40.1502 117.192C57.4224 126.168 76.757 130.377 96.1786 129.389C115.6 128.4 134.412 122.25 150.693 111.566L65.9202 26.1082C56.9013 16.9538 45.2923 10.8152 32.6749 8.52858C20.0575 6.242 7.0453 7.91865 -4.58922 13.3301L-12.3828 17.9834Z" fill="#F25B38"/>
<path d="M3.17673 -69.7214C5.96793 -72.5233 8.90596 -75.1778 12.2848 -77.9797C14.1946 -79.5281 16.1778 -81.0766 18.0876 -82.4775C39.1897 -97.8831 64.6402 -106.124 90.7323 -105.999C93.0094 -105.999 95.5068 -105.999 98.0776 -105.999C102.558 -105.999 107.186 -105.188 111.666 -104.524C113.87 -104.524 116.147 -103.713 118.35 -103.197C127.11 -101.294 135.633 -98.426 143.765 -94.6437C147.07 -93.0216 150.229 -91.3994 153.387 -89.556C162.875 -84.1084 171.595 -77.4131 179.316 -69.6476C180.715 -68.2955 182.039 -66.8678 183.282 -65.371C184.207 -64.5023 185.067 -63.5658 185.853 -62.5691C186.363 -62.0159 186.829 -61.4243 187.249 -60.7995C188.13 -59.7672 189.159 -58.5137 190.114 -57.1865L191.876 -54.7532C192.538 -53.8684 193.199 -52.9836 193.786 -52.025L194.154 -51.4352L195.916 -48.8544L197.312 -46.5687C198.3 -45.0448 199.207 -43.4696 200.03 -41.8496C200.714 -40.7979 201.304 -39.6876 201.793 -38.5316C202.454 -37.4256 203.335 -35.7297 204.143 -34.0338C204.951 -32.3379 206.053 -29.6097 207.008 -27.2502C214.73 -8.10493 217.546 12.6788 215.198 33.1991C212.85 53.7194 205.412 73.3207 193.566 90.2093L191.509 92.79C190.921 93.7486 190.187 94.6334 189.526 95.5182L184.384 102.154L178.288 96.403L87.133 5.48806C73.9043 -7.87715 56.9131 -16.8517 38.448 -20.2266C19.983 -23.6016 0.931152 -21.2149 -16.1413 -13.3881L-31.8601 -6.01458L-26.1308 -22.4574C-22.2783 -33.6539 -16.8358 -44.2334 -9.97136 -53.8684L-9.45714 -54.9744L-6.29872 -59.0299C-5.19693 -60.5046 -3.72775 -62.2005 -2.25869 -63.8964C-0.789639 -65.5922 1.34041 -67.7306 3.17673 -69.7214ZM182.475 -41.7759C182.231 -42.2101 181.961 -42.6288 181.666 -43.0294L181.226 -43.693C180.783 -44.4549 180.266 -45.1712 179.683 -45.8313L178.067 -48.1908L175.423 -51.4352L174.248 -52.9099C173.621 -53.7 172.933 -54.4397 172.191 -55.1219C170.796 -56.7441 169.767 -57.8501 168.665 -58.9561C161.851 -65.7872 154.171 -71.6876 145.822 -76.505C142.957 -78.1271 140.092 -79.6019 137.228 -81.0028C130.172 -84.2592 122.783 -86.7317 115.192 -88.3763C113.062 -88.8924 111.226 -89.2611 109.242 -89.556C105.155 -90.213 101.036 -90.656 96.9023 -90.8833C94.8961 -90.9937 92.8854 -90.9937 90.8792 -90.8833C67.8495 -91.0232 45.3793 -83.7628 26.7549 -70.1638C24.9921 -68.9349 23.3027 -67.6077 21.6867 -66.1821C17.0984 -62.4619 12.8237 -58.368 8.90602 -53.9422C7.58388 -52.32 6.33518 -50.919 5.23338 -49.4443C4.13159 -47.9696 3.32366 -47.0111 2.51567 -45.9051L2.07498 -45.2415C-0.784041 -41.3003 -3.36146 -37.1608 -5.63768 -32.854C6.44795 -36.0747 18.9976 -37.1723 31.456 -36.0984C56.4471 -33.7815 79.8387 -22.7452 97.5634 -4.90853L182.548 80.3288C192.478 65.5476 198.63 48.5398 200.462 30.8068C202.293 13.0737 199.749 -4.83934 193.052 -21.3514C192.367 -23.3773 191.532 -25.349 190.554 -27.2502C189.958 -28.6694 189.271 -30.0486 188.498 -31.3793C188.127 -32.2369 187.71 -33.0738 187.249 -33.8863C186.074 -36.0246 185.045 -37.6468 184.091 -39.1952L182.548 -40.7436L182.475 -41.7759Z" fill="#02272F"/>
</g>
<defs>
<filter id="filter0_d_6141_32533" x="-41.9988" y="-112" width="266.001" height="266" filterUnits="userSpaceOnUse" color-interpolation-filters="sRGB">
<feFlood flood-opacity="0" result="BackgroundImageFix"/>
<feColorMatrix in="SourceAlpha" type="matrix" values="0 0 0 0 0 0 0 0 0 0 0 0 0 0 0 0 0 0 127 0" result="hardAlpha"/>
<feOffset dy="2"/>
<feGaussianBlur stdDeviation="4"/>
<feComposite in2="hardAlpha" operator="out"/>
<feColorMatrix type="matrix" values="0 0 0 0 0 0 0 0 0 0 0 0 0 0 0 0 0 0 0.25 0"/>
<feBlend mode="normal" in2="BackgroundImageFix" result="effect1_dropShadow_6141_32533"/>
<feBlend mode="normal" in="SourceGraphic" in2="effect1_dropShadow_6141_32533" result="shape"/>
</filter>
</defs>
</svg>
